<?xml version="1.0" encoding="utf-8"?>
<!-- Generator: Adobe Illustrator 22.0.1, SVG Export Plug-In . SVG Version: 6.00 Build 0)  -->
<svg version="1.1" xmlns="http://www.w3.org/2000/svg" xmlns:xlink="http://www.w3.org/1999/xlink" x="0px" y="0px"
     viewBox="0 0 5171.8 2250.5" style="enable-background:new 0 0 5171.8 2250.5;" xml:space="preserve">
<style type="text/css">
	.st0{display:none;}
	.st1{display:inline;fill:#222222;}
	.st2{fill:#FEBC20;}
	.st3{fill:#8E2D71;}
	.st4{fill:#DD292F;}
	.st5{fill:#FFFFFF;}
	.st6{display:inline;}
	.st7{fill:#F99F1B;}
	.st8{fill:#BE2026;}
	.st9{fill:#590F43;}
    
    
        g{
            animation-name: diamondSkew;
            animation-duration: 4s;
            animation-iteration-count: infinite;
            transform-origin: 50% 50%;
        }
        
        @keyframes diamondSkew {
            0%   { 
                transform: skew(0) rotate(-2deg);  
            }
            25%  { 
                transform: skew(-5deg) rotate(0deg);
            }
            50%  { 
                transform: skew(0 rotate(2deg));  
            }
            75%  { 
                transform: skew(5deg) rotate(0deg); 
            }
            100% { 
                transform: skew(0) rotate(-2deg); 
            }
        }
    
    
</style>
<g id="Layer_1">
</g>
<g id="Layer_27" class="st0">
	<rect x="523" y="476.1" class="st1" width="4455.7" height="1080"/>
</g>
<g id="Layer_26">
	<path class="st2" d="M2214.5,1221.1c43.4-73.8,105.4,81.7,132.1,2.1c26.1-79.1,52.2-153.8,82.7-196.9c30-43.5,64.4-55.3,96.4-18.5
		c31.5,35.5,60.6,119.6,69.4,236c12.7,115.3-127.6,85.8-130.5,190.2c-3.5,105.8,302.5,146.9,299.1,200.1
		c-7.1,106.7-185.7,303.2-241.8,277.4c-55.2-28.5-144.4-67.7-236.7-83.7c-91.9-19.1-187-14.8-246.6-28.1
		c-29.3-5.3-44.6-17.7-46.4-31.7c-1.9-14.4,9.7-30.5,33-51.8C2069.4,1673.3,2132.8,1370.4,2214.5,1221.1z"/>
</g>
<g id="Layer_25">
	<path class="st2" d="M3249.4,1825.1c-89.1-52.3,98.5-127.2,2.5-159.3c-95.4-31.5-185.5-62.9-237.5-99.7
		c-52.5-36.2-66.7-77.7-22.3-116.3c42.8-38,144.3-73.1,284.7-83.7c139-15.3,103.5,153.9,229.4,157.4
		c127.7,4.2,177.2-364.9,241.4-360.8c128.6,8.6,365.7,224,334.6,291.7c-34.4,66.6-81.7,174.1-100.9,285.4
		c-23,110.9-17.9,225.6-33.9,297.5c-6.4,35.3-21.3,53.8-38.3,56c-17.4,2.3-36.8-11.6-62.5-39.8
		C3794.8,2000.1,3429.6,1923.6,3249.4,1825.1z"/>
</g>
<g id="Layer_24">
	<g>
		<path class="st3" d="M1896.4,515.4c-3.1,14.8,3.4,29.8,16.2,37.9c8.1,5.2,18.3,13.3,30.5,29.6c18.5,24.6-8.2,73.6,28.7,70.4
			c35.6-3.1,55.8-14.1,71,79.1c6,36.5,28.1,53.1,60.7,66.6c33.3,13.8,73.7-8,130.1,28.6c35.2,22.9,64.7-12.7,94.1,2.2
			c44.1,22.4,26,61.8,56.5,70c22.9,6.2,25.5-31.7,89.9-28.5c110.7,5.5,163.7-145.1,117.4-191.6c-44.6-44.8,7-89.6-22.8-117.1
			c-35.8-33.1-94.7-7.9-86.4-72.5c2.7-21.3,33.9-71,12.9-98.6c-28.5-37.5,28.1-97.4-29.3-129.8c-79.1-44.6-42.3-69.9-86.7-91.8
			c-33.9-16.7-59.6-15.9-97.9-9.2c-39.6,6.9-73.8,47.2-87.1,27.8c-19.4-28.2,58.3-32.8,30.8-59.9c-16-15.8-30.1-3-56.3,14.1
			c-19.2,12.5-43.1,15.8-66.7-8.8c-35.7-37.3-111.4-68.8-155.1-38.7c-34,23.3-12.9,61.1-28.4,76.2c-35.4,34.5-13.4,59.4-26.4,87.9
			c-17.7,38.7-6,68.9,7.2,112.1C1918,433.3,1902.1,488.4,1896.4,515.4z"/>
	</g>
</g>
<g id="Layer_23">
	<path class="st2" d="M929.2,730.3c20.1,87.1-138.6,13.7-101.7,93.1c36.9,78.7,70.8,154.1,78.5,208.6c8.4,54.5-9.2,88.2-59.9,83.2
		C796.9,1111,714.5,1068,624.3,986c-92.3-78.3,35.2-156.6-37.5-237.9c-73.3-82.8-334.8,105.6-370.4,62.8
		c-71.1-86-76.7-363.2-15.6-383.8c62.3-18,158.1-52.2,239.5-106.3c83.4-51.5,152.5-122.9,207.2-155.6c26-17,46.5-18.6,58-9.2
		c11.8,9.6,14.6,30.1,12.1,63C714.9,283.2,884.1,558.4,929.2,730.3z"/>
</g>
<g id="Layer_22">
	<path class="st4" d="M1114.4,691.3c-3.9,26.6-17.8,44.3-30.5,49c-13.3,4.8-25.5-3.5-38.2-26c-13.8-22.3,45.5-144.6,17.5-192.6
		c-26.7-47.7-140.9-21.1-176.4-83.1c-16.9-30.9-32.4-61.1-42.6-89.1c-10.4-28-15.7-53.9-16.1-76.9c-1-46.1,16.5-80.3,35.7-100.3
		c20.3-20.1,39.4-26.3,61.3-19.1c22.4,7.1,47.6,27.5,93.8,57.5c43.1,29.9,52.7,134.5,99.1,167.2c47.2,32.9,131.2-6,143.4,16.1
		c13.4,22.5,7.8,37.7,0.9,47.9c-3.4,5.2-6.8,9.1-9.1,12.5c-2.4,3.4-3.7,6.2-6.6,8.9c-4.1,5.5-11,11-28.3,20.6
		c-16.2,9.6-42.7,23.4-61.2,43.6c-19.9,20-31.9,46.4-35.6,75.8C1116.7,632.6,1120.6,664.8,1114.4,691.3z"/>
</g>
<g id="Layer_21">
	<path class="st4" d="M4397.3,1383.9c-13.3-17.9-15.5-36.3-10.8-46.5c5-10.6,17-12.8,37.5-7.2c21.1,4.9,58,111.2,102.4,122.8
		c43.5,12.3,94.7-70.1,151.8-54.5c28,8.2,54.7,16.8,77,27.2c22.5,10.3,40.7,22.4,54.4,35.6c27.5,26.4,37.3,56.6,37.8,79.5
		c-0.1,23.7-7.7,38.4-24.7,47c-17.3,9-43.9,11.8-88.5,21.2c-42.7,7.7-109.5-47.8-155.7-39.8c-46.9,8.4-73.2,80.3-93.3,74.4
		c-21-5.3-26.6-17.5-28.5-27.5c-1-5-1.4-9.3-2-12.6c-0.6-3.4-1.5-5.8-1.4-9.1c-0.8-5.7,0.1-12.9,4.5-28.6
		c3.9-15.1,11.3-38.6,10.3-61.3c0-23.3-8.5-45.8-23.5-65.2C4430.2,1419.6,4409.2,1403,4397.3,1383.9z"/>
</g>
<g id="Layer_20">
	<path class="st4" d="M382.7,1132.4c-20.6-48.8-15.3-92.8,1.4-113.7c17.5-21.6,46.5-20.1,90.9,4.7c46.1,23.4,71.1,290.1,167.4,342.2
		c93.8,53,258.9-108.5,382.1-40.2c60.1,34.9,117,69.8,162.9,106.5c46.2,36.5,81.5,74.8,105.8,113.1c48.7,76.7,54.2,152.2,42.5,205.5
		c-13.6,54.7-39.5,84.6-83.7,94.8c-45,11-108.3,2.4-216.8-1.1c-103.1-6.3-226.1-172.6-337.7-180.3c-113.2-7.2-214.8,144.3-258,119.3
		c-45.6-24.1-51.6-55.6-50.5-79.8c0.4-12.1,2.1-22.3,2.4-30.4c0.6-8.2-0.1-14.2,1.9-21.8c1.3-13.6,7.4-29.7,26.6-63.6
		c17.5-32.6,48-83,58.5-136.1c13.2-54,6.4-110.8-17.5-164.1C438.7,1233.6,399.4,1183.3,382.7,1132.4z"/>
</g>
<g id="Layer_19">
	<path class="st4" d="M3053-7.6c-20.6-48.8-15.3-92.8,1.4-113.7c17.5-21.6,46.5-20.1,90.9,4.7c46.1,23.4,71.1,290.1,167.4,342.2
		c93.8,53,258.9-108.5,382.1-40.2c60.1,34.9,117,69.8,162.9,106.5c46.2,36.5,81.5,74.8,105.8,113.1c48.7,76.7,54.2,152.2,42.5,205.5
		c-13.6,54.7-39.5,84.6-83.7,94.8c-45,11-108.3,2.4-216.8-1.1c-103.1-6.3-226.1-172.6-337.7-180.3c-113.2-7.2-214.8,144.3-258,119.3
		c-45.6-24.1-51.6-55.6-50.5-79.8c0.4-12.1,2.1-22.3,2.4-30.4c0.6-8.2-0.1-14.2,1.9-21.8c1.3-13.6,7.4-29.7,26.6-63.6
		c17.5-32.6,48-83,58.5-136.1c13.2-54,6.4-110.8-17.5-164.1C3109.1,93.5,3069.7,43.2,3053-7.6z"/>
</g>
<g id="Layer_18">
	<g>
		<path class="st5" d="M700.4,1396l85.7-123.7l123.7,85.7L824,1481.7L700.4,1396z M790.2,1295.4l-66.9,96.5l96.5,66.9l66.9-96.5
			L790.2,1295.4z"/>
	</g>
</g>
<g id="Layer_17">
	<g>
		<path class="st5" d="M3600,1128.3c-2.7-3.1-2-8,1.6-11.1c3.5-3.1,8.6-3.1,11.3-0.1c2.7,3.1,2,8-1.6,11.1
			C3607.7,1131.4,3602.7,1131.4,3600,1128.3z"/>
		<path class="st5" d="M3580.8,1145.2c-2.7-3.1-2-8,1.6-11.1c3.5-3.1,8.6-3.1,11.3-0.1c2.7,3.1,2,8-1.6,11.1
			C3588.5,1148.2,3583.5,1148.2,3580.8,1145.2z"/>
		<path class="st5" d="M3561.6,1162c-2.7-3.1-2-8,1.6-11.1c3.5-3.1,8.6-3.1,11.3-0.1c2.7,3.1,2,8-1.6,11.1
			C3569.3,1165,3564.2,1165.1,3561.6,1162z"/>
		<path class="st5" d="M3542.3,1178.9c-2.7-3.1-2-8,1.6-11.1c3.5-3.1,8.6-3.1,11.3-0.1c2.7,3.1,2,8-1.6,11.1
			C3550,1181.9,3545,1181.9,3542.3,1178.9z"/>
		<path class="st5" d="M3523.1,1195.7c-2.7-3.1-2-8,1.6-11.1c3.5-3.1,8.6-3.1,11.3-0.1c2.7,3.1,2,8-1.6,11.1
			C3530.8,1198.7,3525.7,1198.8,3523.1,1195.7z"/>
		<path class="st5" d="M3503.8,1212.5c-2.7-3.1-2-8,1.6-11.1c3.5-3.1,8.6-3.1,11.3-0.1c2.7,3.1,2,8-1.6,11.1
			C3511.5,1215.6,3506.5,1215.6,3503.8,1212.5z"/>
		<path class="st5" d="M3484.6,1229.4c-2.7-3.1-2-8,1.6-11.1c3.5-3.1,8.6-3.1,11.3-0.1c2.7,3.1,2,8-1.6,11.1
			C3492.3,1232.4,3487.3,1232.4,3484.6,1229.4z"/>
		<path class="st5" d="M3465.3,1246.2c-2.7-3.1-2-8,1.6-11.1c3.5-3.1,8.6-3.1,11.3-0.1c2.7,3.1,2,8-1.6,11.1
			C3473.1,1249.2,3468,1249.3,3465.3,1246.2z"/>
		<path class="st5" d="M3446.1,1263c-2.7-3.1-2-8,1.6-11.1c3.5-3.1,8.6-3.1,11.3-0.1c2.7,3.1,2,8-1.6,11.1
			C3453.8,1266.1,3448.8,1266.1,3446.1,1263z"/>
		<path class="st5" d="M3426.9,1279.9c-2.7-3.1-2-8,1.6-11.1c3.5-3.1,8.6-3.1,11.3-0.1c2.7,3.1,2,8-1.6,11.1
			C3434.6,1282.9,3429.5,1282.9,3426.9,1279.9z"/>
		<path class="st5" d="M3407.6,1296.7c-2.7-3.1-2-8,1.6-11.1c3.5-3.1,8.6-3.1,11.3-0.1c2.7,3.1,2,8-1.6,11.1
			C3415.3,1299.7,3410.3,1299.8,3407.6,1296.7z"/>
		<path class="st5" d="M3388.4,1313.6c-2.7-3.1-2-8,1.6-11.1c3.5-3.1,8.6-3.1,11.3-0.1c2.7,3.1,2,8-1.6,11.1
			C3396.1,1316.6,3391,1316.6,3388.4,1313.6z"/>
		<path class="st5" d="M3369.1,1330.4c-2.7-3.1-2-8,1.6-11.1c3.5-3.1,8.6-3.1,11.3-0.1c2.7,3.1,2,8-1.6,11.1
			C3376.8,1333.4,3371.8,1333.4,3369.1,1330.4z"/>
		<path class="st5" d="M3548.5,1138.6c-2.7-3.1-2-8,1.6-11.1c3.5-3.1,8.6-3.1,11.3-0.1c2.7,3.1,2,8-1.6,11.1
			C3556.2,1141.7,3551.2,1141.7,3548.5,1138.6z"/>
		<path class="st5" d="M3529.2,1155.5c-2.7-3.1-2-8,1.6-11.1c3.5-3.1,8.6-3.1,11.3-0.1c2.7,3.1,2,8-1.6,11.1
			C3537,1158.5,3531.9,1158.5,3529.2,1155.5z"/>
		<path class="st5" d="M3510,1172.3c-2.7-3.1-2-8,1.6-11.1c3.5-3.1,8.6-3.1,11.3-0.1c2.7,3.1,2,8-1.6,11.1
			C3517.7,1175.3,3512.7,1175.4,3510,1172.3z"/>
		<path class="st5" d="M3490.8,1189.1c-2.7-3.1-2-8,1.6-11.1c3.5-3.1,8.6-3.1,11.3-0.1c2.7,3.1,2,8-1.6,11.1
			C3498.5,1192.2,3493.4,1192.2,3490.8,1189.1z"/>
		<path class="st5" d="M3471.5,1206c-2.7-3.1-2-8,1.6-11.1c3.5-3.1,8.6-3.1,11.3-0.1c2.7,3.1,2,8-1.6,11.1
			C3479.2,1209,3474.2,1209,3471.5,1206z"/>
		<path class="st5" d="M3452.3,1222.8c-2.7-3.1-2-8,1.6-11.1c3.5-3.1,8.6-3.1,11.3-0.1c2.7,3.1,2,8-1.6,11.1
			C3460,1225.8,3454.9,1225.9,3452.3,1222.8z"/>
		<path class="st5" d="M3433,1239.7c-2.7-3.1-2-8,1.6-11.1c3.5-3.1,8.6-3.1,11.3-0.1c2.7,3.1,2,8-1.6,11.1
			C3440.7,1242.7,3435.7,1242.7,3433,1239.7z"/>
		<path class="st5" d="M3413.8,1256.5c-2.7-3.1-2-8,1.6-11.1c3.5-3.1,8.6-3.1,11.3-0.1c2.7,3.1,2,8-1.6,11.1
			C3421.5,1259.5,3416.5,1259.5,3413.8,1256.5z"/>
		<path class="st5" d="M3394.5,1273.3c-2.7-3.1-2-8,1.6-11.1c3.5-3.1,8.6-3.1,11.3-0.1c2.7,3.1,2,8-1.6,11.1
			C3402.3,1276.3,3397.2,1276.4,3394.5,1273.3z"/>
		<path class="st5" d="M3375.3,1290.2c-2.7-3.1-2-8,1.6-11.1c3.5-3.1,8.6-3.1,11.3-0.1c2.7,3.1,2,8-1.6,11.1
			C3383,1293.2,3378,1293.2,3375.3,1290.2z"/>
		<path class="st5" d="M3356.1,1307c-2.7-3.1-2-8,1.6-11.1c3.5-3.1,8.6-3.1,11.3-0.1c2.7,3.1,2,8-1.6,11.1
			C3363.8,1310,3358.7,1310.1,3356.1,1307z"/>
		<path class="st5" d="M3337,1324.4c-2.6-2.9-2-8.1,1.5-11.4c3.5-3.3,8.5-3.4,11.2-0.3c2.7,3.1,2,8-1.6,11.2
			C3344.5,1326.9,3339.6,1327.2,3337,1324.4z"/>
		<path class="st5" d="M3319.8,1346.9c-11.8-11.6,2-14.1,6.9-17.9c15.6,0,3.1,9.4,3.1,14.4
			C3326.7,1347.6,3322.2,1349.3,3319.8,1346.9z"/>
		<path class="st5" d="M3496.9,1148.9c-2.7-3.1-2-8,1.6-11.1c3.5-3.1,8.6-3.1,11.3-0.1c2.7,3.1,2,8-1.6,11.1
			C3504.6,1151.9,3499.6,1152,3496.9,1148.9z"/>
		<path class="st5" d="M3477.7,1165.8c-2.7-3.1-2-8,1.6-11.1c3.5-3.1,8.6-3.1,11.3-0.1c2.7,3.1,2,8-1.6,11.1
			C3485.4,1168.8,3480.4,1168.8,3477.7,1165.8z"/>
		<path class="st5" d="M3458.5,1182.6c-2.7-3.1-2-8,1.6-11.1c3.5-3.1,8.6-3.1,11.3-0.1c2.7,3.1,2,8-1.6,11.1
			C3466.2,1185.6,3461.1,1185.7,3458.5,1182.6z"/>
		<path class="st5" d="M3439.2,1199.4c-2.7-3.1-2-8,1.6-11.1c3.5-3.1,8.6-3.1,11.3-0.1c2.7,3.1,2,8-1.6,11.1
			C3446.9,1202.5,3441.9,1202.5,3439.2,1199.4z"/>
		<path class="st5" d="M3420,1216.3c-2.7-3.1-2-8,1.6-11.1c3.5-3.1,8.6-3.1,11.3-0.1c2.7,3.1,2,8-1.6,11.1
			C3427.7,1219.3,3422.6,1219.3,3420,1216.3z"/>
		<path class="st5" d="M3400.7,1233.1c-2.7-3.1-2-8,1.6-11.1c3.5-3.1,8.6-3.1,11.3-0.1c2.7,3.1,2,8-1.6,11.1
			C3408.4,1236.1,3403.4,1236.2,3400.7,1233.1z"/>
		<path class="st5" d="M3381.5,1249.9c-2.7-3.1-2-8,1.6-11.1c3.5-3.1,8.6-3.1,11.3-0.1c2.7,3.1,2,8-1.6,11.1
			C3389.2,1253,3384.2,1253,3381.5,1249.9z"/>
		<path class="st5" d="M3362.2,1266.8c-2.7-3.1-2-8,1.6-11.1c3.5-3.1,8.6-3.1,11.3-0.1c2.7,3.1,2,8-1.6,11.1
			C3370,1269.8,3364.9,1269.8,3362.2,1266.8z"/>
		<path class="st5" d="M3343,1283.6c-2.7-3.1-2-8,1.6-11.1c3.5-3.1,8.6-3.1,11.3-0.1c2.7,3.1,2,8-1.6,11.1
			C3350.7,1286.6,3345.7,1286.7,3343,1283.6z"/>
		<path class="st5" d="M3324.1,1301.6c-5.6-9.5,3.8-12.6,6.3-14.5c4.4,0.6,10.6,3.7,4.7,13.5
			C3331.6,1303.9,3326.7,1304.5,3324.1,1301.6z"/>
		<path class="st5" d="M3307.1,1324.8c-11.6-11.4,2.1-13.9,7.1-17.7c15.6,0,3.1,9.4,2.9,14.2
			C3314.1,1325.7,3309.6,1327.4,3307.1,1324.8z"/>
		<path class="st5" d="M3292.6,1354.9c-3.9-9,0.4-24,11.1-20.3c1.9,2.5-1.2,8.7-2,14C3299,1354.4,3295,1357.3,3292.6,1354.9z"/>
		<path class="st5" d="M3279.5,1389.4c-2.7-7.2-4.6-25.4,8.5-23.5c1.9,2.5,0.6,11.2,0.1,15.8
			C3285.7,1388,3281.9,1391.5,3279.5,1389.4z"/>
		<path class="st5" d="M3445.4,1159.2c-2.7-3.1-2-8,1.6-11.1c3.5-3.1,8.6-3.1,11.3-0.1c2.7,3.1,2,8-1.6,11.1
			C3453.1,1162.2,3448.1,1162.3,3445.4,1159.2z"/>
		<path class="st5" d="M3426.1,1176c-2.7-3.1-2-8,1.6-11.1c3.5-3.1,8.6-3.1,11.3-0.1c2.7,3.1,2,8-1.6,11.1
			C3433.9,1179.1,3428.8,1179.1,3426.1,1176z"/>
		<path class="st5" d="M3406.9,1192.9c-2.7-3.1-2-8,1.6-11.1c3.5-3.1,8.6-3.1,11.3-0.1c2.7,3.1,2,8-1.6,11.1
			C3414.6,1195.9,3409.6,1195.9,3406.9,1192.9z"/>
		<path class="st5" d="M3387.7,1209.7c-2.7-3.1-2-8,1.6-11.1c3.5-3.1,8.6-3.1,11.3-0.1c2.7,3.1,2,8-1.6,11.1
			C3395.4,1212.7,3390.3,1212.8,3387.7,1209.7z"/>
		<path class="st5" d="M3368.4,1226.6c-2.7-3.1-2-8,1.6-11.1c3.5-3.1,8.6-3.1,11.3-0.1c2.7,3.1,2,8-1.6,11.1
			C3376.1,1229.6,3371.1,1229.6,3368.4,1226.6z"/>
		<path class="st5" d="M3349.2,1243.4c-2.7-3.1-2-8,1.6-11.1c3.5-3.1,8.6-3.1,11.3-0.1c2.7,3.1,2,8-1.6,11.1
			C3356.9,1246.4,3351.8,1246.4,3349.2,1243.4z"/>
		<path class="st5" d="M3329.9,1260.2c-2.7-3.1-2-8,1.6-11.1c3.5-3.1,8.6-3.1,11.3-0.1c2.7,3.1,2,8-1.6,11.1
			C3337.6,1263.3,3332.6,1263.3,3329.9,1260.2z"/>
		<path class="st5" d="M3311.1,1278.4c-2.6-3-2.1-8.4,1.3-11.9c3.4-3.5,8.5-3.6,11.1-0.6c2.7,3.1,2,8.1-1.5,11.5
			C3318.6,1280.8,3313.7,1281.3,3311.1,1278.4z"/>
		<path class="st5" d="M3293.9,1301.5c-2.8-4.3,0.3-26.2,12.1-15.6c3.8,5,3.1,9.4-1.9,12.6
			C3301.1,1302.9,3296.5,1304.4,3293.9,1301.5z"/>
		<path class="st5" d="M3279,1330.4c-7.2-7,2.1-25.7,10.2-20.1c1.9,2.5,0.6,11.2-0.8,15C3285.8,1330.8,3281.6,1333.3,3279,1330.4z"
			/>
		<path class="st5" d="M3266.1,1365.2c-6.2-5.5-5.6-25.5,7.5-23.6c1.9,2.5,0.6,11.2,1.4,17
			C3272.8,1365.1,3268.8,1368.2,3266.1,1365.2z"/>
		<path class="st5" d="M3253.2,1400c-6.4-11-0.7-19.1,8.6-22.2c1.3,6.9,0.6,11.2,0.5,16.1C3260,1400.2,3255.9,1402.9,3253.2,1400z"
			/>
		<path class="st5" d="M3238,1428.1c-2.6-2.9-2.3-9,0.6-13.9c2.9-4.9,7.3-6.7,10-3.8s2.4,9.3-0.5,14.2S3240.6,1431,3238,1428.1z"/>
		<path class="st5" d="M3393.8,1169.5c-2.7-3.1-2-8,1.6-11.1c3.5-3.1,8.6-3.1,11.3-0.1c2.7,3.1,2,8-1.6,11.1
			C3401.5,1172.5,3396.5,1172.6,3393.8,1169.5z"/>
		<path class="st5" d="M3374.6,1186.3c-2.7-3.1-2-8,1.6-11.1c3.5-3.1,8.6-3.1,11.3-0.1c2.7,3.1,2,8-1.6,11.1
			C3382.3,1189.4,3377.3,1189.4,3374.6,1186.3z"/>
		<path class="st5" d="M3355.4,1203.2c-2.7-3.1-2-8,1.6-11.1c3.5-3.1,8.6-3.1,11.3-0.1c2.7,3.1,2,8-1.6,11.1
			C3363.1,1206.2,3358,1206.2,3355.4,1203.2z"/>
		<path class="st5" d="M3336.1,1220c-2.7-3.1-2-8,1.6-11.1c3.5-3.1,8.6-3.1,11.3-0.1c2.7,3.1,2,8-1.6,11.1
			C3343.8,1223,3338.8,1223.1,3336.1,1220z"/>
		<path class="st5" d="M3316.9,1236.8c-2.7-3.1-2-8,1.6-11.1c3.5-3.1,8.6-3.1,11.3-0.1c2.7,3.1,2,8-1.6,11.1
			C3324.6,1239.9,3319.5,1239.9,3316.9,1236.8z"/>
		<path class="st5" d="M3297.8,1254.4c-1.8-7.8,1.3-14.1,8.2-15.3c1.9,2.5,10,8.1,2.9,14.7
			C3305.4,1257.1,3300.5,1257.5,3297.8,1254.4z"/>
		<path class="st5" d="M3280.3,1276.8c-3-8.3-1.2-21.4,11.3-15.2c1.9,2.5,3.1,9.4-0.8,12.9C3287.7,1278.7,3283,1279.9,3280.3,1276.8
			z"/>
		<path class="st5" d="M3264.6,1303.6c-4.7-6.4-1-17,5.9-18.2c9.4-3.1,3.1,9.4,4.1,14.6C3271.8,1305.1,3267.3,1306.9,3264.6,1303.6z
			"/>
		<path class="st5" d="M3250.7,1335.3c-3.9-8.7-4.5-20,4.8-23.1c15.6,0,5,11.9,4.8,18.5C3257.9,1336.9,3253.6,1339.1,3250.7,1335.3z
			"/>
		<path class="st5" d="M3237.6,1369.6c-3.1-4.2-3.7-12.8-1.2-18.9c2.5-6.2,6.9-7.8,9.9-3.9c3,4,3.5,12.3,1.1,18.7
			C3245.1,1372,3240.7,1373.9,3237.6,1369.6z"/>
		<path class="st5" d="M3222.9,1399.3c-1-7.1-6.1-19,3.3-22.1c11.2-0.6,9.4,12.5,7.5,20.7C3231,1403.2,3226.1,1403.7,3222.9,1399.3z
			"/>
		<path class="st5" d="M3204.6,1418.5c-3.2-4.6-2.9-10.7,0.6-13.8c3.5-3.1,8.9-2.2,12.1,2.3c3.2,4.5,3,10.9-0.5,14.1
			C3213.3,1424.3,3207.8,1423,3204.6,1418.5z"/>
		<path class="st5" d="M3182.6,1427.2c-5-5.7-4.4-10.1,2.5-11.3c6.9-1.3,23.1,10,10.8,17.2
			C3191.8,1434.4,3185.8,1431.8,3182.6,1427.2z"/>
		<path class="st5" d="M3342.3,1179.8c-2.7-3.1-2-8,1.6-11.1c3.5-3.1,8.6-3.1,11.3-0.1c2.7,3.1,2,8-1.6,11.1
			C3350,1182.8,3345,1182.8,3342.3,1179.8z"/>
		<path class="st5" d="M3323,1196.6c-2.7-3.1-2-8,1.6-11.1c3.5-3.1,8.6-3.1,11.3-0.1c2.7,3.1,2,8-1.6,11.1
			C3330.8,1199.6,3325.7,1199.7,3323,1196.6z"/>
		<path class="st5" d="M3303.8,1213.5c-2.7-3.1-2-8,1.6-11.1c3.5-3.1,8.6-3.1,11.3-0.1c2.7,3.1,2,8-1.6,11.1
			C3311.5,1216.5,3306.5,1216.5,3303.8,1213.5z"/>
		<path class="st5" d="M3284.6,1230.4c-2.7-3.1-2-8.1,1.6-11.2c3.5-3.1,8.6-3.1,11.3-0.1c2.7,3.1,2,8-1.6,11.2
			C3292.3,1233.4,3287.2,1233.5,3284.6,1230.4z"/>
		<path class="st5" d="M3266.4,1250.8c-9.7-9.8-2.2-15.4,4.6-16.6c4.4,0.6,15,4.4,6.2,15.2C3274,1253.3,3269.2,1254.1,3266.4,1250.8
			z"/>
		<path class="st5" d="M3249.7,1275.4c-9.2-14.3,2.6-19.3,11.4-18.1c1.9,2.5,0.6,11.2-0.8,15.8
			C3257.2,1277.8,3252.6,1278.9,3249.7,1275.4z"/>
		<path class="st5" d="M3234.3,1303c-5.6-5.7,0-29.5,11.8-18.9c3.8,5,0.6,11.2-1.4,16.3C3241.9,1305.8,3237.3,1307,3234.3,1303z"/>
		<path class="st5" d="M3219.7,1332.7c-1.6-7.9-6.6-19.8,2.7-22.9c11.2-0.6,9.4,12.5,7.9,21.1
			C3227.8,1336.7,3223,1337.5,3219.7,1332.7z"/>
		<path class="st5" d="M3204.5,1360.8c0.5-6.7-4.5-18.5,4.9-21.6c8.7,1.2,14.4,8.7,6.7,22.4
			C3213.3,1366.8,3208.1,1366.3,3204.5,1360.8z"/>
		<path class="st5" d="M3186.7,1381.4c-2.2-7.9-3.5-14.8-1-16.7c10-7.5,25,12.5,13.8,21C3196.1,1389.3,3190.3,1387.2,3186.7,1381.4z
			"/>
		<path class="st5" d="M3165.6,1392.9c-5.6-5.1-2.4-11.3,0.1-13.2c13.7-2.5,14.4,8.7,13.7,20.2
			C3175.4,1401.7,3169.2,1398.5,3165.6,1392.9z"/>
		<path class="st5" d="M3142.5,1398.4c-4.3-13.7,4.5-12.4,10.7-9.3c1.9,2.5,14.4,8.7,3.3,17.3
			C3152.2,1407.1,3145.9,1403.5,3142.5,1398.4z"/>
		<path class="st5" d="M3118.7,1402.1c-3.2-4.4-2.3-8.7,2.1-9.6c4.3-0.9,10.5,2.3,13.8,7.2c3.3,4.9,2.4,9.1-2.1,9.6
			C3128,1409.7,3121.8,1406.5,3118.7,1402.1z"/>
		<path class="st5" d="M3290.7,1190.1c-2.7-3.1-2-8,1.6-11.1c3.5-3.1,8.6-3.1,11.3-0.1c2.7,3.1,2,8-1.6,11.1
			C3298.5,1193.1,3293.4,1193.1,3290.7,1190.1z"/>
		<path class="st5" d="M3271.5,1206.9c-2.7-3.1-2-8,1.6-11.1c3.5-3.1,8.6-3.1,11.3-0.1c2.7,3.1,2,8-1.6,11.1
			C3279.2,1209.9,3274.2,1210,3271.5,1206.9z"/>
		<path class="st5" d="M3252.5,1224.8c-3.3-9.3,4.8-19.3,12.9-13.7c3.8,5,3.1,9.4-1.8,13.1
			C3260.2,1227.7,3255.2,1228.1,3252.5,1224.8z"/>
		<path class="st5" d="M3234.9,1246.7c-4.4-9.3-1.3-15.6,5.6-16.8c11.2-0.6,7.5,10,5.3,15.6
			C3242.6,1249.7,3237.7,1250.3,3234.9,1246.7z"/>
		<path class="st5" d="M3218.1,1271c-4.5-9.4-0.2-24.3,9.8-16.2c3.8,5,0.6,11.2,1,15C3226,1274.5,3221.1,1275.1,3218.1,1271z"/>
		<path class="st5" d="M3201.8,1296.2c-3.8-3.3-5-10.2-1.9-16.4c10-7.5,16.9,6.8,13.1,16C3210.1,1300.6,3205.1,1300.8,3201.8,1296.2
			z"/>
		<path class="st5" d="M3185.2,1320.2c-3.4-7.3-10.3-21.7,7.2-19.2c6.2,3.1,5,11.9,4.5,20.5
			C3194,1326.1,3188.7,1325.4,3185.2,1320.2z"/>
		<path class="st5" d="M3167.2,1340.3c-4.1-5.5-5.3-12.4-0.3-16.1c14.4-6.9,20.6,11.8,13,20
			C3176.6,1347.8,3170.8,1345.8,3167.2,1340.3z"/>
		<path class="st5" d="M3147.2,1354.7c-7.8-9.9,2.2-17.4,8.5-14.3s9.4,12.5,4.9,20.1C3156.8,1362.9,3150.7,1360.1,3147.2,1354.7z"/>
		<path class="st5" d="M3125.6,1364.6c-3.3-4.8-2.8-10.1,1.2-12c4-1.9,9.9,0.6,13.4,5.8c3.5,5.3,3.1,11-1,12.5
			C3135,1372.4,3128.9,1369.4,3125.6,1364.6z"/>
		<path class="st5" d="M3103.3,1372.8c-6.3-11.7,2.4-10.5,9.3-11.7c-0.6,4.4,14.4,8.7,3.9,17.2
			C3112.4,1379.5,3106.5,1377.1,3103.3,1372.8z"/>
		<path class="st5" d="M3081.4,1381.8c-3.7-10.1,0.7-9.5,7.5-10.7c8.7,1.2,10,8.1,5.1,14.6
			C3089.9,1387.2,3084.3,1385.5,3081.4,1381.8z"/>
		<path class="st5" d="M3060.3,1393.4c-2.6-6.7,0.5-13,9.2-11.7c-0.6,4.4,14.4,8.7,2.8,13.7
			C3068.4,1397.6,3063.1,1396.7,3060.3,1393.4z"/>
		<path class="st5" d="M3239.2,1200.4c-2.7-3.1-2-8.1,1.6-11.2c3.5-3.1,8.6-3.1,11.3-0.1c2.7,3.1,2,8-1.6,11.2
			C3246.9,1203.4,3241.9,1203.5,3239.2,1200.4z"/>
		<path class="st5" d="M3220.4,1218.8c-3.6-10.2,4.5-20.2,12.6-14.5c3.8,5,3.1,9.4-1.4,14.1
			C3228.1,1222,3223.1,1222.2,3220.4,1218.8z"/>
		<path class="st5" d="M3202.6,1240.1c-4.6-9.6-1.4-15.9,5.4-17.1c11.2-0.6,7.5,10,5.7,16.7
			C3210.5,1243.8,3205.5,1244.1,3202.6,1240.1z"/>
		<path class="st5" d="M3185.2,1262.5c-10.9-6.4-0.9-13.9,6.6-19.5c1.3,6.9,12.5,6.2,4.7,19.7
			C3193.3,1266.9,3188.3,1266.8,3185.2,1262.5z"/>
		<path class="st5" d="M3167.5,1284c-5.1-7.2-3.8-16,5.6-19.1c8.7,1.2,11.9,10.6,6.2,20.4C3176,1289.2,3170.7,1288.6,3167.5,1284z"
			/>
		<path class="st5" d="M3149.1,1303.1c-5.4-4.5-4.1-13.2-1.6-15.1c10-7.5,21.2,7.5,13.8,17.8
			C3158,1309.3,3152.4,1307.9,3149.1,1303.1z"/>
		<path class="st5" d="M3129.6,1319c-4-2.9-5.2-9.8-0.2-13.6c10-7.5,21.2,7.5,12.9,17.4C3138.6,1325.7,3132.9,1323.8,3129.6,1319z"
			/>
		<path class="st5" d="M3109.2,1332.1c-3.2-4.5-2.7-10,1.1-12.4c3.8-2.4,9.4-0.8,12.7,4c3.3,4.7,2.9,10.5-1,12.7
			C3118.1,1338.6,3112.3,1336.6,3109.2,1332.1z"/>
		<path class="st5" d="M3088.2,1343.7c-3.7-4.5-0.6-10.7,1.9-12.6c6.9-1.3,16.9,6.8,10.7,16.5
			C3096.9,1349.6,3091.2,1347.8,3088.2,1343.7z"/>
		<path class="st5" d="M3067.2,1355.5c-2.9-3.7-2.2-8.6,1.6-10.9c3.8-2.3,9.3-1,12.3,3c3,4,2.2,8.8-1.7,10.9
			C3075.6,1360.4,3070.1,1359.2,3067.2,1355.5z"/>
		<path class="st5" d="M3046.9,1369.1c-2.7-3.2-2-8.2,1.7-10.9c3.7-2.7,9-2,11.8,1.5c2.8,3.5,2.1,8.3-1.7,10.7
			C3054.9,1372.9,3049.6,1372.3,3046.9,1369.1z"/>
		<path class="st5" d="M3027.5,1385.6c-2.7-3.1-2-8,1.6-11.1c3.5-3.1,8.6-3.1,11.3,0s2,8-1.6,11.1
			C3035.2,1388.6,3030.2,1388.6,3027.5,1385.6z"/>
		<path class="st5" d="M3008.3,1402.4c-2.7-3.1-2-8,1.6-11.1c3.5-3.1,8.6-3.1,11.3-0.1c2.7,3.1,2,8-1.6,11.1
			C3016,1405.4,3011,1405.5,3008.3,1402.4z"/>
		<path class="st5" d="M3187.9,1211.6c-2.8-3.5-2.2-8.8,1.3-12c3.5-3.2,8.6-3.2,11.3-0.1c2.7,3.1,2.1,8.5-1.3,12
			C3195.7,1215.1,3190.7,1215.1,3187.9,1211.6z"/>
		<path class="st5" d="M3169.5,1231.2c-2.9-3.9-2.5-9.8,0.9-13.3c3.4-3.5,8.5-3.4,11.3,0.2c2.8,3.6,2.5,9.7-0.8,13.5
			C3177.5,1235.3,3172.4,1235.1,3169.5,1231.2z"/>
		<path class="st5" d="M3151.2,1250.9c-3.8-9.7-0.6-16,6.2-17.2c13.1,1.9,5,11.9,5.4,18.3
			C3159.5,1255.7,3154.3,1255.1,3151.2,1250.9z"/>
		<path class="st5" d="M3132.6,1269.5c-1.3-8.3-2-19.6,8.6-15.8c6.2,3.1,7.5,10,3.3,17.8C3141.1,1274.8,3135.7,1273.9,3132.6,1269.5
			z"/>
		<path class="st5" d="M3113.3,1286.2c-3.1-4.4-2.7-10.2,0.8-13.3c3.6-3,8.9-2.1,12,2.3c3.1,4.4,2.8,10.6-0.7,13.6
			S3116.4,1290.6,3113.3,1286.2z"/>
		<path class="st5" d="M3093.5,1301.2c-3.1-4.2-2.5-9.7,1.1-12.5c3.6-2.8,9.1-1.6,12.2,2.7c3.1,4.3,2.7,10.1-1,12.8
			C3102.1,1306.8,3096.6,1305.4,3093.5,1301.2z"/>
		<path class="st5" d="M3073.3,1315.1c-2.9-3.9-2.3-9.1,1.4-11.7c3.7-2.7,9.1-1.6,12.1,2.5c3,4.1,2.5,9.5-1.3,11.9
			C3081.7,1320.3,3076.3,1319,3073.3,1315.1z"/>
		<path class="st5" d="M3053.2,1329.4c-2.8-3.4-2.1-8.5,1.5-11.3c3.6-2.8,8.9-2.1,11.8,1.7c2.9,3.7,2.2,8.8-1.5,11.3
			C3061.4,1333.6,3056,1332.8,3053.2,1329.4z"/>
		<path class="st5" d="M3033.7,1345.3c-2.7-3.1-2-8,1.6-11.1c3.5-3.1,8.6-3,11.4,0.2c2.8,3.3,2,8.2-1.6,11.1
			C3041.4,1348.4,3036.4,1348.4,3033.7,1345.3z"/>
		<path class="st5" d="M3014.5,1362.2c-2.7-3.1-2-8,1.6-11.1c3.5-3.1,8.6-3.1,11.3-0.1c2.7,3.1,2,8-1.6,11.1
			C3022.2,1365.2,3017.1,1365.2,3014.5,1362.2z"/>
		<path class="st5" d="M2995.2,1379c-2.7-3.1-2-8,1.6-11.1c3.5-3.1,8.6-3.1,11.3-0.1c2.7,3.1,2,8-1.6,11.1
			C3002.9,1382,2997.9,1382.1,2995.2,1379z"/>
		<path class="st5" d="M2976,1395.9c-2.7-3.1-2-8,1.6-11.1c3.5-3.1,8.6-3.1,11.3-0.1c2.7,3.1,2,8-1.6,11.1
			C2983.7,1398.9,2978.7,1398.9,2976,1395.9z"/>
		<path class="st5" d="M2956.7,1412.7c-2.7-3.1-2-8,1.6-11.1c3.5-3.1,8.6-3.1,11.3-0.1c2.7,3.1,2,8-1.6,11.1
			C2964.4,1415.7,2959.4,1415.7,2956.7,1412.7z"/>
		<path class="st5" d="M3136.3,1221.7c-3.2-4.9-0.1-11.2,2.4-13c6.9-1.3,15.6,0,9,13.4C3144.2,1225.5,3139.1,1225.2,3136.3,1221.7z"
			/>
		<path class="st5" d="M3117.3,1239.3c-8.6-8.1-1.1-13.7,5.8-15c11.2-0.6,7.5,10,5.8,15.9C3125.4,1243.5,3120.2,1243,3117.3,1239.3z
			"/>
		<path class="st5" d="M3098.1,1256.3c-2.9-3.7-2.3-9.1,1.2-12.2c3.5-3.1,8.7-2.8,11.6,1c2.9,3.7,2.4,9.5-1.1,12.6
			C3106.3,1260.7,3101,1260,3098.1,1256.3z"/>
		<path class="st5" d="M3078.7,1272.6c-2.8-3.6-2.2-8.8,1.4-11.8c3.6-3,8.7-2.6,11.6,1.1c2.9,3.7,2.4,9.3-1.2,12.2
			C3086.8,1276.9,3081.5,1276.2,3078.7,1272.6z"/>
		<path class="st5" d="M3059.2,1288.6c-4.1-9.2,5.2-12.4,7.7-14.2c11.2-0.6,7.5,10,3.8,15.2
			C3067.2,1292.4,3062,1291.9,3059.2,1288.6z"/>
		<path class="st5" d="M3039.9,1305.1c-2.7-3.1-2-8,1.6-11.1c3.5-3.1,8.6-3.1,11.3,0c2.7,3.2,2,8.2-1.6,11.2
			C3047.6,1308.2,3042.6,1308.2,3039.9,1305.1z"/>
		<path class="st5" d="M3020.6,1322c-2.7-3.1-2-8,1.6-11.1c3.5-3.1,8.6-3.1,11.3-0.1c2.7,3.1,2,8-1.6,11.1
			C3028.4,1325,3023.3,1325,3020.6,1322z"/>
		<path class="st5" d="M3001.4,1338.8c-2.7-3.1-2-8,1.6-11.1c3.5-3.1,8.6-3.1,11.3-0.1c2.7,3.1,2,8-1.6,11.1
			C3009.1,1341.8,3004.1,1341.8,3001.4,1338.8z"/>
		<path class="st5" d="M2982.2,1355.6c-2.7-3.1-2-8,1.6-11.1c3.5-3.1,8.6-3.1,11.3-0.1c2.7,3.1,2,8-1.6,11.1
			C2989.9,1358.6,2984.8,1358.7,2982.2,1355.6z"/>
		<path class="st5" d="M2962.9,1372.5c-2.7-3.1-2-8,1.6-11.1c3.5-3.1,8.6-3.1,11.3-0.1c2.7,3.1,2,8-1.6,11.1
			C2970.6,1375.5,2965.6,1375.5,2962.9,1372.5z"/>
		<path class="st5" d="M2943.7,1389.3c-2.7-3.1-2-8,1.6-11.1c3.5-3.1,8.6-3.1,11.3-0.1c2.7,3.1,2,8-1.6,11.1
			C2951.4,1392.3,2946.3,1392.4,2943.7,1389.3z"/>
		<path class="st5" d="M2924.4,1406.1c-2.7-3.1-2-8,1.6-11.1c3.5-3.1,8.6-3.1,11.3-0.1c2.7,3.1,2,8-1.6,11.1
			C2932.1,1409.2,2927.1,1409.2,2924.4,1406.1z"/>
		<path class="st5" d="M2905.2,1423c-2.7-3.1-2-8,1.6-11.1c3.5-3.1,8.6-3.1,11.3-0.1c2.7,3.1,2,8-1.6,11.1
			C2912.9,1426,2907.9,1426,2905.2,1423z"/>
		<path class="st5" d="M3084.5,1231.2c-2.7-3.1-2-8,1.6-11.1c3.5-3.1,8.6-3.1,11.3-0.1c2.7,3.1,2,8.1-1.6,11.2
			C3092.3,1234.3,3087.2,1234.3,3084.5,1231.2z"/>
		<path class="st5" d="M3065.3,1248.1c-2.7-3.1-2-8,1.6-11.1c3.5-3.1,8.6-3.1,11.3-0.1c2.7,3.1,2,8.1-1.6,11.2
			C3073,1251.1,3068,1251.1,3065.3,1248.1z"/>
		<path class="st5" d="M3046.1,1264.9c-2.7-3.1-2-8,1.6-11.1c3.5-3.1,8.6-3.1,11.3-0.1c2.7,3.1,2,8-1.6,11.1
			C3053.8,1267.9,3048.7,1268,3046.1,1264.9z"/>
		<path class="st5" d="M3026.8,1281.7c-2.7-3.1-2-8,1.6-11.1c3.5-3.1,8.6-3.1,11.3-0.1c2.7,3.1,2,8-1.6,11.1
			C3034.5,1284.8,3029.5,1284.8,3026.8,1281.7z"/>
		<path class="st5" d="M3007.6,1298.6c-2.7-3.1-2-8,1.6-11.1c3.5-3.1,8.6-3.1,11.3-0.1c2.7,3.1,2,8-1.6,11.1
			C3015.3,1301.6,3010.2,1301.6,3007.6,1298.6z"/>
		<path class="st5" d="M2988.3,1315.4c-2.7-3.1-2-8,1.6-11.1c3.5-3.1,8.6-3.1,11.3-0.1c2.7,3.1,2,8-1.6,11.1
			C2996,1318.4,2991,1318.5,2988.3,1315.4z"/>
		<path class="st5" d="M2969.1,1332.2c-2.7-3.1-2-8,1.6-11.1c3.5-3.1,8.6-3.1,11.3-0.1c2.7,3.1,2,8-1.6,11.1
			C2976.8,1335.3,2971.8,1335.3,2969.1,1332.2z"/>
		<path class="st5" d="M2949.8,1349.1c-2.7-3.1-2-8,1.6-11.1c3.5-3.1,8.6-3.1,11.3-0.1c2.7,3.1,2,8-1.6,11.1
			C2957.6,1352.1,2952.5,1352.1,2949.8,1349.1z"/>
		<path class="st5" d="M2930.6,1365.9c-2.7-3.1-2-8,1.6-11.1c3.5-3.1,8.6-3.1,11.3-0.1c2.7,3.1,2,8-1.6,11.1
			C2938.3,1368.9,2933.3,1369,2930.6,1365.9z"/>
		<path class="st5" d="M2911.4,1382.8c-2.7-3.1-2-8,1.6-11.1c3.5-3.1,8.6-3.1,11.3-0.1c2.7,3.1,2,8-1.6,11.1
			C2919.1,1385.8,2914,1385.8,2911.4,1382.8z"/>
		<path class="st5" d="M2892.1,1399.6c-2.7-3.1-2-8,1.6-11.1c3.5-3.1,8.6-3.1,11.3-0.1c2.7,3.1,2,8-1.6,11.1
			C2899.8,1402.6,2894.8,1402.6,2892.1,1399.6z"/>
		<path class="st5" d="M2872.6,1416.2c-2.8-3.2-2.1-8.1,1.6-11.1c3.7-3,8.8-2.9,11.5,0.1c2.7,3.1,2,8.1-1.6,11.1
			C2880.5,1419.4,2875.3,1419.3,2872.6,1416.2z"/>
		<path class="st5" d="M2852.5,1432.1c-9.5-9,6.1-9,6.7-13.4c6.2,3.1,15,4.4,5.2,14C2860.8,1435.8,2855.5,1435.5,2852.5,1432.1z"/>
		<path class="st5" d="M3033,1241.5c-2.7-3.1-2-8,1.6-11.1c3.5-3.1,8.6-3.1,11.3-0.1c2.7,3.1,2,8-1.6,11.1
			C3040.7,1244.5,3035.7,1244.6,3033,1241.5z"/>
		<path class="st5" d="M3013.8,1258.3c-2.7-3.1-2-8,1.6-11.1c3.5-3.1,8.6-3.1,11.3-0.1c2.7,3.1,2,8-1.6,11.1
			C3021.5,1261.4,3016.4,1261.4,3013.8,1258.3z"/>
		<path class="st5" d="M2994.5,1275.2c-2.7-3.1-2-8,1.6-11.1c3.5-3.1,8.6-3.1,11.3-0.1c2.7,3.1,2,8-1.6,11.1
			C3002.2,1278.2,2997.2,1278.2,2994.5,1275.2z"/>
		<path class="st5" d="M2975.3,1292c-2.7-3.1-2-8,1.6-11.1c3.5-3.1,8.6-3.1,11.3-0.1c2.7,3.1,2,8-1.6,11.1
			C2983,1295,2977.9,1295.1,2975.3,1292z"/>
		<path class="st5" d="M2956,1308.9c-2.7-3.1-2-8,1.6-11.1c3.5-3.1,8.6-3.1,11.3-0.1c2.7,3.1,2,8-1.6,11.1
			C2963.7,1311.9,2958.7,1311.9,2956,1308.9z"/>
		<path class="st5" d="M2936.8,1325.7c-2.7-3.1-2-8,1.6-11.1c3.5-3.1,8.6-3.1,11.3-0.1c2.7,3.1,2,8-1.6,11.1
			C2944.5,1328.7,2939.5,1328.7,2936.8,1325.7z"/>
		<path class="st5" d="M2917.5,1342.5c-2.7-3.1-2-8,1.6-11.1c3.5-3.1,8.6-3.1,11.3-0.1c2.7,3.1,2,8-1.6,11.1
			C2925.3,1345.5,2920.2,1345.6,2917.5,1342.5z"/>
		<path class="st5" d="M2898.3,1359.4c-2.7-3.1-2-8,1.6-11.1c3.5-3.1,8.6-3.1,11.3-0.1c2.7,3.1,2,8-1.6,11.1
			C2906,1362.4,2901,1362.4,2898.3,1359.4z"/>
		<path class="st5" d="M2878.9,1376.1c-2.7-3.1-2-8.1,1.6-11.1c3.6-3,8.7-3.1,11.3,0c2.7,3.1,2,8-1.6,11.1
			C2886.7,1379.2,2881.6,1379.2,2878.9,1376.1z"/>
		<path class="st5" d="M2858.6,1391.8c-2.9-3.3-2.2-8.2,1.7-11c3.9-2.8,9.2-2.5,11.9,0.7c2.8,3.2,2,8.1-1.7,11
			C2866.9,1395.4,2861.5,1395.1,2858.6,1391.8z"/>
		<path class="st5" d="M2837,1406.2c-3.3-3.6-2.6-8.7,1.5-11.2c4.1-2.5,10-1.8,13,1.7c3,3.4,2.3,8.4-1.5,11.1
			C2846.1,1410.6,2840.3,1409.9,2837,1406.2z"/>
		<path class="st5" d="M2815,1420.3c-3.6-3.9-3.2-9.2,0.9-11.7c4.2-2.5,10.3-1.4,13.7,2.3c3.4,3.7,2.9,8.9-1.1,11.6
			C2824.6,1425.1,2818.6,1424.2,2815,1420.3z"/>
		<path class="st5" d="M2793.7,1435c-3.2-3.7-4.4-10.6,0.6-14.3c10-7.5,21.2,7.5,13.1,16.6C2803.6,1440.2,2797.6,1439.2,2793.7,1435
			z"/>
		<path class="st5" d="M2981.4,1251.8c-2.7-3.1-2-8,1.6-11.1c3.5-3.1,8.6-3.1,11.3-0.1c2.7,3.1,2,8-1.6,11.1
			C2989.2,1254.8,2984.1,1254.9,2981.4,1251.8z"/>
		<path class="st5" d="M2962.2,1268.6c-2.7-3.1-2-8,1.6-11.1c3.5-3.1,8.6-3.1,11.3-0.1c2.7,3.1,2,8-1.6,11.1
			C2969.9,1271.7,2964.9,1271.7,2962.2,1268.6z"/>
		<path class="st5" d="M2943,1285.5c-2.7-3.1-2-8,1.6-11.1c3.5-3.1,8.6-3.1,11.3-0.1c2.7,3.1,2,8-1.6,11.1
			C2950.7,1288.5,2945.6,1288.5,2943,1285.5z"/>
		<path class="st5" d="M2923.7,1302.3c-2.7-3.1-2-8,1.6-11.1c3.5-3.1,8.6-3.1,11.3-0.1c2.7,3.1,2,8-1.6,11.1
			C2931.4,1305.3,2926.4,1305.4,2923.7,1302.3z"/>
		<path class="st5" d="M2904.5,1319.1c-2.7-3.1-2-8,1.6-11.1c3.5-3.1,8.6-3.1,11.3-0.1c2.7,3.1,2,8-1.6,11.1
			C2912.2,1322.2,2907.2,1322.2,2904.5,1319.1z"/>
		<path class="st5" d="M2885.2,1336c-2.7-3.1-2-8,1.6-11.1c3.5-3.1,8.6-3.1,11.3-0.1c2.7,3.1,2,8-1.6,11.1
			C2892.9,1339,2887.9,1339,2885.2,1336z"/>
		<path class="st5" d="M2865.6,1352.4c-2.7-6.7,6-21.1,13.5-11.1c3.8,5,3.1,9.4-2,11.3C2873.5,1355.7,2868.3,1355.5,2865.6,1352.4z"
			/>
		<path class="st5" d="M2843.9,1366.8c-3.1-3.4-2.1-8.2,2.1-10.6c4.2-2.5,9.8-1.9,12.7,1.3c2.9,3.2,2,8.1-1.9,10.8
			C2852.7,1370.9,2847,1370.2,2843.9,1366.8z"/>
		<path class="st5" d="M2820.2,1379.3c-1.6-4.2-3.5-6.7-3.5-6.7c1.2-8.7,27.5-5,17.5,9.3C2830,1384.3,2823.7,1383.1,2820.2,1379.3z"
			/>
		<path class="st5" d="M2795.7,1390.6c-7-8.6,2.9-16.1,9.2-12.9c6.2,3.1,16.9,6.8,5.8,16.8
			C2806.3,1396.7,2799.7,1395.1,2795.7,1390.6z"/>
		<path class="st5" d="M2771.9,1402.1c-3.2-5.1-7-10.1-2-13.9c8.7,1.2,24.3,1.2,17.4,18.7
			C2783.2,1409.3,2776.4,1407.4,2771.9,1402.1z"/>
		<path class="st5" d="M2751.2,1417.1c-5-3.2-8.1-12.6-3.1-16.3c9.4-3.1,23.1,10,17.8,20.5
			C2762.3,1424.2,2755.9,1422.6,2751.2,1417.1z"/>
		<path class="st5" d="M2734.4,1436.6c-4.4-2.7-6.9-16.4,2.5-19.5c11.2-0.6,9.4,12.5,10.6,21.9
			C2744.4,1442.4,2738.7,1441.6,2734.4,1436.6z"/>
		<path class="st5" d="M2929.9,1262.1c-2.7-3.1-2-8,1.6-11.1c3.5-3.1,8.6-3.1,11.3-0.1c2.7,3.1,2,8-1.6,11.1
			C2937.6,1265.1,2932.6,1265.1,2929.9,1262.1z"/>
		<path class="st5" d="M2910.7,1278.9c-2.7-3.1-2-8,1.6-11.1c3.5-3.1,8.6-3.1,11.3-0.1c2.7,3.1,2,8-1.6,11.1
			C2918.4,1281.9,2913.3,1282,2910.7,1278.9z"/>
		<path class="st5" d="M2891.4,1295.8c-2.7-3.1-2-8,1.6-11.1c3.5-3.1,8.6-3.1,11.3-0.1c2.7,3.1,2,8-1.6,11.1
			C2899.1,1298.8,2894.1,1298.8,2891.4,1295.8z"/>
		<path class="st5" d="M2872.2,1312.6c-2.7-3.1-2-8,1.6-11.1c3.5-3.1,8.6-3.1,11.3-0.1c2.7,3.1,2,8-1.6,11.1
			C2879.9,1315.6,2874.8,1315.6,2872.2,1312.6z"/>
		<path class="st5" d="M2852.2,1328.7c-2.8-3.2-1.8-7.9,2-10.8c3.8-2.8,8.9-2.8,11.6,0.3c2.7,3.1,1.9,8-1.7,11
			C2860.3,1332.1,2855,1331.8,2852.2,1328.7z"/>
		<path class="st5" d="M2829.2,1341.9c-3.1-3.4-1.8-7.9,2.6-10.1c4.4-2.3,10.2-1.6,13.1,1.6s1.9,7.9-2.4,10.4
			C2838.2,1346.2,2832.2,1345.3,2829.2,1341.9z"/>
		<path class="st5" d="M2802.8,1351.3c-3.7-4.3-2.4-8.6,2.8-9.9c5.2-1.2,12,0.6,15.2,4.2c3.2,3.6,2.1,8.1-2.6,10.1
			C2813.5,1357.5,2806.5,1355.6,2802.8,1351.3z"/>
		<path class="st5" d="M2774.1,1356.9c-3.6-4.2-7.3-9.2,2-12.4c6.9-1.3,27.5,10.6,15.1,19.4
			C2786.1,1365.2,2778.5,1362.1,2774.1,1356.9z"/>
		<path class="st5" d="M2746.4,1363.2c-4.9-5.9-4.8-11.7,0.4-12.7c5.2-1,13.2,2.7,17.7,8.2c4.5,5.4,4.2,10.9-0.7,12.3
			C2759,1372.4,2751.3,1369,2746.4,1363.2z"/>
		<path class="st5" d="M2723.5,1375c-2.3-4.8-10.4-10.4-2.9-16c9.4-3.1,23.1,10,19.1,22.4C2735.7,1383.9,2728.6,1381.2,2723.5,1375z
			"/>
		<path class="st5" d="M2707.5,1395.4c-2.5-5.2-12.5-13.3-5-18.9c12.5-9.4,20.6,11.8,18.7,22.3
			C2718.3,1402.7,2712.3,1401.3,2707.5,1395.4z"/>
		<path class="st5" d="M2696.3,1422c-6.3-4.9-8.8-18.7,0.6-21.8c13.1,1.9,13.7,13.1,11,22.5
			C2705.8,1427.5,2700.6,1427.2,2696.3,1422z"/>
		<path class="st5" d="M2686.1,1449.8c-4.2-7.1-11.7-17.1,0.2-22.1c11.2-0.6,9.4,12.5,10.2,21.3
			C2694.4,1453.7,2689.7,1454.1,2686.1,1449.8z"/>
		<path class="st5" d="M2878.3,1272.4c-2.7-3.1-2-8,1.6-11.1c3.5-3.1,8.6-3.1,11.3-0.1c2.7,3.1,2,8-1.6,11.1
			C2886.1,1275.4,2881,1275.4,2878.3,1272.4z"/>
		<path class="st5" d="M2859.1,1289.2c-2.7-3.1-2-8,1.6-11.1c3.5-3.1,8.6-3.1,11.3-0.1c2.7,3.1,2,8-1.6,11.1
			C2866.8,1292.2,2861.8,1292.3,2859.1,1289.2z"/>
		<path class="st5" d="M2839,1305.2c-2.8-3.1-1.7-7.8,2.1-10.6c3.8-2.8,8.9-2.8,11.6,0.2c2.7,3.1,1.9,8-1.8,10.9
			C2847.1,1308.6,2841.7,1308.3,2839,1305.2z"/>
		<path class="st5" d="M2814.8,1317.2c0-9.5,11.9-14.5,17.5-7.1c1.9,2.5-1.2,8.7-3.6,9.6C2824.2,1322,2817.9,1320.8,2814.8,1317.2z"
			/>
		<path class="st5" d="M2785.5,1322.6c-3.6-4.2-1.7-7.9,3.9-8.5c5.7-0.6,12.8,1.8,16.1,5.6c3.3,3.8,1.8,7.9-3.6,8.9
			C2796.5,1329.6,2789.1,1326.8,2785.5,1322.6z"/>
		<path class="st5" d="M2753.5,1323.7c-3.1-2.9-2.4-7.2-2.4-7.2c5-3.8,35.6,0.6,20.3,15.5
			C2765.6,1332.4,2757.6,1328.6,2753.5,1323.7z"/>
		<path class="st5" d="M2721.7,1324.4c-2.4-3.5-1.8-7.8-1.8-7.8c8.1-10,30.6,4.3,20.3,17.3
			C2734.6,1334.3,2726.4,1330.1,2721.7,1324.4z"/>
		<path class="st5" d="M2695,1331.1c-5-6.3-5.6-13-0.8-14.3c4.8-1.4,13,2.8,17.8,8.7c4.8,5.9,4.7,11.8,0.2,13.5
			C2707.5,1340.7,2700,1337.4,2695,1331.1z"/>
		<path class="st5" d="M2678.6,1351c-2.9-5.1-10.4-15.1-5.5-18.8c12.5-9.4,18.7,9.3,19,22.1C2689.3,1358.3,2683.4,1357,2678.6,1351z
			"/>
		<path class="st5" d="M2670.3,1381.4c-5.3-8-10.3-19.9-1-23c9.4-3.1,9.4,12.5,11.4,22.4C2679.2,1386.3,2674.6,1386.7,2670.3,1381.4
			z"/>
		<path class="st5" d="M2664.2,1414.5c2.7-7.4-17.9-19.2,0.2-21.1c6.9-1.3,11.9,10.6,8.9,18.7
			C2672,1417.9,2667.9,1418.9,2664.2,1414.5z"/>
		<path class="st5" d="M2656.1,1445.1c-0.4-6.2-7.9-16.1,1.5-19.3c6.9-1.3,10,8.1,7.7,16.8C2663.5,1448,2659.3,1448.9,2656.1,1445.1
			z"/>
		<path class="st5" d="M2643.8,1470.4c-2.9-3.3-3.2-9.6-0.8-14.1c2.3-4.6,6.5-5.7,9.5-2.1c3,3.6,3.5,10.2,1.1,14.5
			C2651.1,1473,2646.7,1473.7,2643.8,1470.4z"/>
		<path class="st5" d="M2826.1,1282.1c-2.7-3.1-1.7-7.8,2-10.7c3.7-3,8.8-3,11.4,0.1c2.7,3.1,2,8-1.7,11
			C2834.2,1285.4,2828.8,1285.2,2826.1,1282.1z"/>
		<path class="st5" d="M2800.9,1292.9c-4.9-10.1,3.8-8.9,10.7-10.1c8.7,1.2,12.5,6.2,3.6,13.4
			C2810.5,1297.9,2803.9,1296.3,2800.9,1292.9z"/>
		<path class="st5" d="M2770.4,1296.3c-3.2-3.8-0.9-6.9,4.9-7.2c5.8-0.3,12.8,2,15.9,5.6c3.1,3.6,1.2,7.2-4.5,7.8
			C2781.1,1303,2773.7,1300.1,2770.4,1296.3z"/>
		<path class="st5" d="M2736.2,1294.2c-3.6-4.4-1.1-7.1,5.5-6.4c6.5,0.7,14.4,4.3,17.7,8.3c3.3,4,1.1,7.2-5.2,6.8
			C2748,1302.6,2739.8,1298.6,2736.2,1294.2z"/>
		<path class="st5" d="M2700.6,1289.6c-4.1-5.1-1.9-8.3,4.8-7.2c6.7,1,15.2,5.7,19,10.3c3.8,4.6,1.7,7.9-4.7,7.3
			C2713.1,1299.3,2704.6,1294.6,2700.6,1289.6z"/>
		<path class="st5" d="M2669.2,1290.1c-4.9-6-4.3-10.4,2.6-11.6c6.9-1.3,27.5,10.6,15.1,20.5
			C2681.5,1299.6,2673.8,1295.9,2669.2,1290.1z"/>
		<path class="st5" d="M2650.7,1307.3c-4.5-5.7-5.1-17-0.8-16.3c11.9-5,16.9,6.8,13.8,19.2C2660.8,1314,2655.2,1313,2650.7,1307.3z"
			/>
		<path class="st5" d="M2644.6,1340.7c-2.7-8.5-10.2-18.5-2.1-28.5c5.6,7.5,15.6,15.6,11,25.9
			C2652.5,1344.4,2648.6,1345.6,2644.6,1340.7z"/>
		<path class="st5" d="M2642.2,1378.7c-3.4-9-4.1-20.2-2.8-29c5.6,7.5,13.7,13.1,10.3,24.5C2649.1,1381,2645.7,1382.9,2642.2,1378.7
			z"/>
		<path class="st5" d="M2637.6,1413.8c-6.3-7.3-4.4-20.4,2.5-21.7c11.9-5,3.1,9.4,5.2,17.5
			C2644.2,1415.8,2640.7,1417.6,2637.6,1413.8z"/>
		<path class="st5" d="M2628.5,1443.6c-1.5-6.5-2.1-17.7,4.7-19c11.9-5,3.1,9.4,4,16C2635.4,1445.8,2631.3,1446.9,2628.5,1443.6z"/>
		<path class="st5" d="M2614.2,1466.7c-3.4-9.6-0.3-15.9,6.6-17.1c4.4,0.6,7.5,10,3.5,15.7
			C2621.5,1469.3,2616.9,1469.8,2614.2,1466.7z"/>
		<path class="st5" d="M2595.9,1484.7c-2.7-3.1-2-8,1.6-11.2c3.5-3.2,8.4-3.4,11.1-0.3c2.7,3.1,2.1,8.3-1.4,11.4
			C2603.6,1487.7,2598.6,1487.8,2595.9,1484.7z"/>
		<path class="st5" d="M2757.8,1272.8c5.7-12.5,15.7-4.4,22-1.3c1.9,2.5-3.1,6.2-6.1,7.1C2768,1279.1,2760.8,1276.3,2757.8,1272.8z"
			/>
		<path class="st5" d="M2722.4,1268.8c-3.2-3.9,0-5.8,6.7-4.8c6.8,1.1,14.4,4.5,17.4,8.1c3,3.6,0.3,6.1-6.3,5.4
			C2733.7,1276.8,2725.6,1272.7,2722.4,1268.8z"/>
		<path class="st5" d="M2684,1260.2c-3.5-4.4-0.4-6.4,6.8-4.5c7.2,1.9,15.7,6.6,19,10.6c3.3,4,0.3,6.2-6.7,4.8
			C2696.1,1269.6,2687.5,1264.6,2684,1260.2z"/>
		<path class="st5" d="M2649.3,1255.5c-3.6-4.8-1.8-8.5,4.4-7.7c6.2,0.7,14.3,5.3,17.8,9.8c3.5,4.5,1.2,7.5-4.9,7
			C2660.4,1264.1,2652.8,1260.3,2649.3,1255.5z"/>
		<path class="st5" d="M2627.6,1268.3c-2.6-5.3-6.3-10.3-1.4-14.1c10-7.5,21.2,7.5,13.6,16.4
			C2636.3,1273.7,2631.1,1273,2627.6,1268.3z"/>
		<path class="st5" d="M2621,1301.9c-4.8-9-9.8-20.9-0.4-24c9.4-3.1,5,11.9,7.9,19.6C2627.7,1304.2,2624.4,1306.3,2621,1301.9z"/>
		<path class="st5" d="M2621.3,1344c-3.1-3.8-5.7-13.2-6-21.3c-0.3-8,2.2-11.2,5.5-7c3.4,4.2,6.2,14,6.2,21.6
			C2627.1,1344.9,2624.4,1347.8,2621.3,1344z"/>
		<path class="st5" d="M2619.7,1383.3c-4-7.9-14-16,2.8-24.8c1.3,6.9,0.6,11.2,3.4,18.7C2625.5,1384.1,2622.6,1386.7,2619.7,1383.3z
			"/>
		<path class="st5" d="M2613.1,1416.3c-2.4-6-7.4-17.8,2-21c9.4-3.1,3.1,9.4,5.7,16.6C2619.4,1417.6,2615.8,1419.4,2613.1,1416.3z"
			/>
		<path class="st5" d="M2600.5,1442.1c-4.1-9.3,1.5-17.5,5.9-16.8c6.9-1.3,5.6,7.5,3.7,14.6
			C2607.5,1444.3,2603.1,1445.2,2600.5,1442.1z"/>
		<path class="st5" d="M2582.8,1461.3c-2.6-8.5,2.4-12.3,7.4-16c3.8,5,10,8.1,3.8,15.8C2590.5,1464.3,2585.5,1464.4,2582.8,1461.3z"
			/>
		<path class="st5" d="M2563.6,1478.2c-2.7-3.1-2-8,1.6-11.1c3.5-3.1,8.6-3.1,11.3-0.1c2.7,3.1,2,8-1.6,11.1
			C2571.3,1481.2,2566.3,1481.2,2563.6,1478.2z"/>
		<path class="st5" d="M2544.3,1495c-2.7-3.1-2-8,1.6-11.1c3.5-3.1,8.6-3.1,11.3-0.1c2.7,3.1,2,8-1.6,11.1
			C2552.1,1498,2547,1498,2544.3,1495z"/>
		<path class="st5" d="M2671.9,1236.3c-2.9-3.8,0.7-4.9,8-2.8c7.3,2.2,15.5,6.6,18.4,10.2c2.9,3.6-0.6,5.1-7.9,3
			C2683.2,1244.8,2674.8,1240.1,2671.9,1236.3z"/>
		<path class="st5" d="M2635.3,1227.6c-2.9-4-0.3-6.5,6.3-5c6.6,1.5,14.4,6,17.3,9.9c2.9,3.9-0.3,5.7-6.8,4.3
			C2645.6,1235.5,2638.3,1231.6,2635.3,1227.6z"/>
		<path class="st5" d="M2610.4,1235.5c-2.9-4-2.6-9.9,1.5-12.1c4.1-2.2,10.4,0.2,13.3,4.3c3,4.1,1.4,8.2-2.7,10.4
			C2618.4,1240.1,2613.3,1239.5,2610.4,1235.5z"/>
		<path class="st5" d="M2601.6,1267.2c-2.9-8-7.9-19.8,1.5-22.9c11.9-5,0.6,11.2,5.3,17.5
			C2607.2,1268.2,2604.3,1270.9,2601.6,1267.2z"/>
		<path class="st5" d="M2602,1310.9c-2.6-9.2-7.6-21.1-3.9-31.7c5.6,7.5,11.3,15,8.4,23.3C2606.8,1310.6,2604.8,1314.4,2602,1310.9z
			"/>
		<path class="st5" d="M2602.8,1353.8c1.7-9-12.7-17.7-0.2-27.1c1.3,6.9,5,11.9,5.3,19.4C2607.8,1353.6,2605.4,1356.9,2602.8,1353.8
			z"/>
		<path class="st5" d="M2598.2,1389.6c-8.1-6.8,0-16.8-1.3-23.6c13.1,1.9,5,11.9,8,17.9C2603.9,1390.2,2600.8,1392.6,2598.2,1389.6z
			"/>
		<path class="st5" d="M2587.1,1417.5c-7.5-7.2,2.4-14.7,3.1-19c13.1,1.9,0.6,11.2,5.9,15.9
			C2593.8,1419.3,2589.7,1420.5,2587.1,1417.5z"/>
		<path class="st5" d="M2569.7,1437.7c-3.8-9.3,4.3-19.3,12.4-13.7c3.8,5,3.1,9.4-1.4,13C2577.3,1440.6,2572.3,1440.8,2569.7,1437.7
			z"/>
		<path class="st5" d="M2550.5,1454.8c-2.7-3.1-2-8,1.6-11.1c3.5-3.1,8.6-3.1,11.3-0.1c2.7,3.1,2,8-1.6,11.1
			C2558.2,1457.8,2553.2,1457.8,2550.5,1454.8z"/>
		<path class="st5" d="M2531.3,1471.6c-2.7-3.1-2-8,1.6-11.1c3.5-3.1,8.6-3.1,11.3-0.1c2.7,3.1,2,8-1.6,11.1
			C2539,1474.6,2534,1474.7,2531.3,1471.6z"/>
		<path class="st5" d="M2512,1488.4c-2.7-3.1-2-8,1.6-11.1c3.5-3.1,8.6-3.1,11.3-0.1c2.7,3.1,2,8-1.6,11.1
			C2519.8,1491.5,2514.7,1491.5,2512,1488.4z"/>
		<path class="st5" d="M2492.8,1505.3c-2.7-3.1-2-8,1.6-11.1c3.5-3.1,8.6-3.1,11.3-0.1c2.7,3.1,2,8-1.6,11.1
			C2500.5,1508.3,2495.5,1508.3,2492.8,1505.3z"/>
		<path class="st5" d="M2596.9,1207.8c-0.8-9.1,11.1-14.1,16.7-6.6c3.8,5,3.1,9.4-4.3,9.6C2604.7,1212,2599.4,1211.1,2596.9,1207.8z
			"/>
		<path class="st5" d="M2585.8,1236.1c-2.7-8.1-9.6-22.4,6-22.5c1.9,2.5,0.6,11.2,0.7,16.9C2591,1236.5,2588.2,1239.4,2585.8,1236.1
			z"/>
		<path class="st5" d="M2585.1,1280.1c-8.2-8.4-2-20.8-5.1-30.2c13.1,1.9,2.5,13.7,9.3,20.7
			C2589.3,1278.8,2587.5,1283.2,2585.1,1280.1z"/>
		<path class="st5" d="M2586.6,1325.1c-4.7-10.4-3.4-19.1-4.1-30.3c13.1,1.9,2.5,13.7,8.2,21.1
			C2591,1324.1,2589.1,1328.1,2586.6,1325.1z"/>
		<path class="st5" d="M2583.7,1363.6c-3-8.8-1.8-17.6-0.5-26.3c3.8,5,11.9,10.6,6.6,19.6C2589,1363.6,2586.2,1366.4,2583.7,1363.6z
			"/>
		<path class="st5" d="M2573.6,1393.1c-1.6-8.3-2.9-15.2,2.1-18.9c9.4-3.1,7.5,10,6.5,15.2C2580.2,1394.5,2576.2,1396,2573.6,1393.1
			z"/>
		<path class="st5" d="M2556.6,1414.1c-3.3-7.5-0.2-13.8,6.7-15c15.6,0,3.1,9.4,4.4,14.2C2564.2,1416.9,2559.3,1417.2,2556.6,1414.1
			z"/>
		<path class="st5" d="M2537.5,1431.4c-2.7-3.1-2-8,1.6-11.1c3.5-3.1,8.6-3.1,11.3-0.1c2.7,3.1,2,8-1.6,11.1
			C2545.2,1434.4,2540.1,1434.4,2537.5,1431.4z"/>
		<path class="st5" d="M2518.2,1448.2c-2.7-3.1-2-8,1.6-11.1c3.5-3.1,8.6-3.1,11.3-0.1c2.7,3.1,2,8-1.6,11.1
			C2525.9,1451.2,2520.9,1451.3,2518.2,1448.2z"/>
		<path class="st5" d="M2499,1465.1c-2.7-3.1-2-8,1.6-11.1c3.5-3.1,8.6-3.1,11.3-0.1c2.7,3.1,2,8-1.6,11.1
			C2506.7,1468.1,2501.6,1468.1,2499,1465.1z"/>
		<path class="st5" d="M2479.7,1481.9c-2.7-3.1-2-8,1.6-11.1c3.5-3.1,8.6-3.1,11.3-0.1c2.7,3.1,2,8-1.6,11.1
			C2487.4,1484.9,2482.4,1484.9,2479.7,1481.9z"/>
		<path class="st5" d="M2460.5,1498.7c-2.7-3.1-2-8,1.6-11.1c3.5-3.1,8.6-3.1,11.3-0.1c2.7,3.1,2,8-1.6,11.1
			C2468.2,1501.7,2463.2,1501.8,2460.5,1498.7z"/>
		<path class="st5" d="M2441.2,1515.6c-2.7-3.1-2-8,1.6-11.1c3.5-3.1,8.6-3.1,11.3-0.1c2.7,3.1,2,8-1.6,11.1
			C2449,1518.6,2443.9,1518.6,2441.2,1515.6z"/>
		<path class="st5" d="M2570.3,1251c-0.3-9.3-12.2-19.9,0.3-29.2c1.3,6.9,2.5,13.7,3.6,19.1
			C2574.2,1249.3,2572.6,1253.9,2570.3,1251z"/>
		<path class="st5" d="M2571.2,1297.3c-5.5-9.3-8-23.1-3-26.8c7.5-5.6,5,11.9,6.9,16.7C2575.3,1295.7,2573.5,1300.1,2571.2,1297.3z"
			/>
		<path class="st5" d="M2569.2,1337.7c-0.3-9.2-7.8-19.2,2.2-26.7c3.8,5,2.5,13.7,3.4,19C2574.3,1337.4,2571.6,1340.6,2569.2,1337.7
			z"/>
		<path class="st5" d="M2560,1368.7c-0.5-5.8-3-19.5,8.2-20.2c1.9,2.5,0.6,11.2,0.1,15.9C2566.5,1369.9,2562.6,1371.6,2560,1368.7z"
			/>
		<path class="st5" d="M2543.6,1390.7c-9-9.1-1.6-14.7,5.3-16c4.4,0.6,15,4.4,5.6,14.9C2551.2,1393.3,2546.3,1393.7,2543.6,1390.7z"
			/>
		<path class="st5" d="M2524.4,1408c-2.7-3.1-2-8,1.6-11.1c3.5-3.1,8.6-3.1,11.3-0.1c2.7,3.1,2,8-1.6,11.1
			C2532.1,1411,2527.1,1411,2524.4,1408z"/>
		<path class="st5" d="M2505.1,1424.8c-2.7-3.1-2-8,1.6-11.1c3.5-3.1,8.6-3.1,11.3-0.1c2.7,3.1,2,8-1.6,11.1
			C2512.9,1427.8,2507.8,1427.9,2505.1,1424.8z"/>
		<path class="st5" d="M2485.9,1441.7c-2.7-3.1-2-8,1.6-11.1c3.5-3.1,8.6-3.1,11.3-0.1c2.7,3.1,2,8-1.6,11.1
			C2493.6,1444.7,2488.6,1444.7,2485.9,1441.7z"/>
		<path class="st5" d="M2466.7,1458.5c-2.7-3.1-2-8,1.6-11.1c3.5-3.1,8.6-3.1,11.3-0.1c2.7,3.1,2,8-1.6,11.1
			C2474.4,1461.5,2469.3,1461.6,2466.7,1458.5z"/>
		<path class="st5" d="M2447.4,1475.3c-2.7-3.1-2-8,1.6-11.1c3.5-3.1,8.6-3.1,11.3-0.1c2.7,3.1,2,8-1.6,11.1
			C2455.1,1478.4,2450.1,1478.4,2447.4,1475.3z"/>
		<path class="st5" d="M2428.2,1492.2c-2.7-3.1-2-8,1.6-11.1c3.5-3.1,8.6-3.1,11.3-0.1c2.7,3.1,2,8-1.6,11.1
			C2435.9,1495.2,2430.9,1495.2,2428.2,1492.2z"/>
		<path class="st5" d="M2409.2,1510.3c-3.1-8.6,5-18.6,13.1-13c3.8,5,3.1,9.4-2.1,11.7C2416.6,1512.1,2411.7,1512.5,2409.2,1510.3z"
			/>
		<path class="st5" d="M2391,1531.9c-1.7-5.9,0.1-19,10.7-15.3c6.2,3.1,5.6,7.5-0.5,10.8C2397.9,1531.3,2393.3,1533.3,2391,1531.9z"
			/>
		<path class="st5" d="M2554.2,1311.5c-8.4-8.5-4.7-19.1,0.9-27.3c1.3,6.9,5,11.9,4.6,19.1
			C2559.2,1310.8,2556.6,1314.3,2554.2,1311.5z"/>
		<path class="st5" d="M2546,1344.4c-0.9-5.8-3.4-19.6,7.9-20.2c1.9,2.5,0.6,11.2,0.3,15.3C2552.4,1345.3,2548.6,1347.2,2546,1344.4
			z"/>
		<path class="st5" d="M2530.5,1367.4c-8.4-7.6,0.9-10.7,5.9-14.5c9.4-3.1,8.1,5.6,4.7,13C2538,1369.9,2533.2,1370.4,2530.5,1367.4z
			"/>
		<path class="st5" d="M2511.3,1384.6c-2.7-3.1-2-8,1.6-11.1c3.5-3.1,8.6-3.1,11.3-0.1c2.7,3.1,2,8-1.6,11.1
			C2519,1387.6,2514,1387.7,2511.3,1384.6z"/>
		<path class="st5" d="M2492.1,1401.4c-2.7-3.1-2-8,1.6-11.1c3.5-3.1,8.6-3.1,11.3-0.1c2.7,3.1,2,8-1.6,11.1
			C2499.8,1404.5,2494.8,1404.5,2492.1,1401.4z"/>
		<path class="st5" d="M2472.8,1418.3c-2.7-3.1-2-8,1.6-11.1c3.5-3.1,8.6-3.1,11.3-0.1c2.7,3.1,2,8-1.6,11.1
			C2480.6,1421.3,2475.5,1421.3,2472.8,1418.3z"/>
		<path class="st5" d="M2453.6,1435.1c-2.7-3.1-2-8,1.6-11.1c3.5-3.1,8.6-3.1,11.3-0.1c2.7,3.1,2,8-1.6,11.1
			C2461.3,1438.1,2456.3,1438.2,2453.6,1435.1z"/>
		<path class="st5" d="M2434.4,1452c-2.7-3.1-2-8,1.6-11.1c3.5-3.1,8.6-3.1,11.3-0.1c2.7,3.1,2,8-1.6,11.1
			C2442.1,1455,2437,1455,2434.4,1452z"/>
		<path class="st5" d="M2415.6,1471.1c-3.9-8.8,4.2-18.8,12.3-13.2c1.9,2.5,1.3,6.9-1.5,11C2422.9,1472.2,2418,1473.2,2415.6,1471.1
			z"/>
		<path class="st5" d="M2398,1495.5c-1.3-6.3,0.6-19.4,11.2-15.7c6.2,3.1,1.3,6.9-1.2,9.9C2404.7,1493.9,2400.2,1496.5,2398,1495.5z
			"/>
		<path class="st5" d="M2380.9,1521.9c-4.8-13.4,8.3-11.5,11.4-17.8c3.8,5,1.3,6.9-2,9.4C2387.1,1518.1,2382.9,1521.9,2380.9,1521.9
			z"/>
		<path class="st5" d="M2364.9,1553.5c5.6-5.6-1.2-20,10-20.6c4.4,0.6,1.3,6.9-1.3,9C2370.6,1547.6,2366.7,1552.7,2364.9,1553.5z"/>
		<path class="st5" d="M2348.4,1583c-4-7.7,5.3-10.8,7.8-12.7c20.6-19.4-7.5,5.6,1.1,1.9C2354.2,1577.5,2350.2,1582.1,2348.4,1583z"
			/>
		<path class="st5" d="M2517.5,1344.4c-2.7-3.1-2-8,1.6-11.1c3.5-3.1,8.6-3.1,11.3-0.1c2.7,3.1,2,8-1.6,11.1
			C2525.2,1347.4,2520.2,1347.4,2517.5,1344.4z"/>
		<path class="st5" d="M2498.3,1361.2c-2.7-3.1-2-8,1.6-11.1c3.5-3.1,8.6-3.1,11.3-0.1c2.7,3.1,2,8-1.6,11.1
			C2506,1364.2,2500.9,1364.3,2498.3,1361.2z"/>
		<path class="st5" d="M2479,1378.1c-2.7-3.1-2-8,1.6-11.1c3.5-3.1,8.6-3.1,11.3-0.1c2.7,3.1,2,8-1.6,11.1
			C2486.7,1381.1,2481.7,1381.1,2479,1378.1z"/>
		<path class="st5" d="M2459.8,1394.9c-2.7-3.1-2-8,1.6-11.1c3.5-3.1,8.6-3.1,11.3-0.1c2.7,3.1,2,8-1.6,11.1
			C2467.5,1397.9,2462.5,1397.9,2459.8,1394.9z"/>
		<path class="st5" d="M2440.5,1411.7c-2.7-3.1-2-8,1.6-11.1c3.5-3.1,8.6-3.1,11.3-0.1c2.7,3.1,2,8-1.6,11.1
			C2448.2,1414.7,2443.2,1414.8,2440.5,1411.7z"/>
		<path class="st5" d="M2421.3,1429.1c-2.6-2.7-2-8,1.5-11.4c3.5-3.4,8.6-3.4,11.2-0.3c2.7,3.1,2,8-1.6,11.1
			C2429,1431.6,2424,1431.8,2421.3,1429.1z"/>
		<path class="st5" d="M2403.8,1453.9c-5.3-9.1,3.4-23.4,11.6-17.8c1.9,2.5,3.1,9.4-1.5,12.4
			C2410.7,1453,2406.2,1455.5,2403.8,1453.9z"/>
		<path class="st5" d="M2387.7,1484.7c-4.7-8.7,0.9-16.8,5.9-20.5c9.4-3.1,5.6,7.5,3.4,11.6
			C2394,1481.3,2389.8,1485.3,2387.7,1484.7z"/>
		<path class="st5" d="M2371.9,1516.9c-0.2-9,2.9-15.2,7.9-19c9.4-3.1-0.6,4.4,0.9,7.9C2377.8,1511.4,2373.8,1516.4,2371.9,1516.9z"
			/>
		<path class="st5" d="M2357.2,1554c0.3-8,5.9-16.1,9.6-26.7c-0.6,4.4-1.2,8.7-1.6,12.2C2362.5,1546.1,2358.9,1552.5,2357.2,1554z"
			/>
		<path class="st5" d="M2341.3,1586.4c2.4-6.7,8-14.8,11.1-21c-0.6,4.4-0.6,4.4-2.7,8.2C2346.8,1579.3,2343,1584.8,2341.3,1586.4z"
			/>
		<path class="st5" d="M2322.6,1605.9c4.3-1.8,4.9-6.1,7.4-8c27.4-20.6,1.9,2.5,2.2,0.6C2328.8,1601.8,2324.4,1604.9,2322.6,1605.9z
			"/>
		<path class="st5" d="M2301,1611.8c4.7,0.5,11.6-0.8,14.1-2.7c0,0-2.5,1.9-3.1,1.5C2308,1611.8,2303,1612.1,2301,1611.8z"/>
		<path class="st5" d="M2466,1354.7c-2.7-3.1-2-8,1.6-11.1c3.5-3.1,8.6-3.1,11.3-0.1c2.7,3.1,2,8-1.6,11.1
			C2473.7,1357.7,2468.6,1357.7,2466,1354.7z"/>
		<path class="st5" d="M2446.7,1371.5c-2.7-3.1-2-8,1.6-11.1c3.5-3.1,8.6-3.1,11.3-0.1c2.7,3.1,2,8-1.6,11.1
			C2454.4,1374.5,2449.4,1374.6,2446.7,1371.5z"/>
		<path class="st5" d="M2427.5,1388.3c-2.7-3.1-2-8,1.6-11.1c3.5-3.1,8.6-3.1,11.3-0.1c2.7,3.1,2,8-1.6,11.1
			C2435.2,1391.4,2430.1,1391.4,2427.5,1388.3z"/>
		<path class="st5" d="M2408.6,1407.2c1.2-9.8,4.9-20.4,13-14.8c1.9,2.5,3.1,9.4-2.1,13C2416,1408.7,2411.2,1409.8,2408.6,1407.2z"
			/>
		<path class="st5" d="M2392.1,1436.6c-0.4-6.1,0.2-26.1,10.8-22.3c1.9,2.5,0.6,11.2-1.1,15.3
			C2398.8,1435,2394.5,1438.3,2392.1,1436.6z"/>
		<path class="st5" d="M2377.2,1472.8c-1.7-6.7-3.6-24.8,9.5-22.9c6.2,3.1-1.2,8.7-0.6,12.6
			C2383.4,1468.9,2379.4,1473.7,2377.2,1472.8z"/>
		<path class="st5" d="M2362.6,1510.2c1-7.8-1.5-21.6,7.9-24.7c4.4,0.6,5.6,7.5,0.7,12.9C2368.5,1504.9,2364.6,1510.3,2362.6,1510.2
			z"/>
		<path class="st5" d="M2349.1,1552.8c-4.1-13,7.7-18,7.1-29.2c6.2,3.1,3.1,9.4,0.8,13.8C2354.4,1545.1,2350.9,1552.1,2349.1,1552.8
			z"/>
		<path class="st5" d="M2334.2,1589.4c2.7-8.4,3.9-17.1,11.4-22.8c-0.6,4.4-1.2,8.7-3,10C2339.8,1583,2336,1588.5,2334.2,1589.4z"/>
		<path class="st5" d="M2315.4,1608.3c4.7-3,9.6-6.7,14.6-10.5c-2.5,1.9-2.5,1.9-4.7,4.7C2321.8,1605.7,2317.3,1608.1,2315.4,1608.3
			z"/>
		<path class="st5" d="M2292.7,1609.5c4.2,1.5,11.1,0.3,15.5,0.9c0,0-4.4-0.6-3.9,0.7C2300.1,1611.1,2294.9,1610.3,2292.7,1609.5z"
			/>
		<path class="st5" d="M2267.7,1599.7c6.8-3,12.4,4.5,18.7,7.6c0,0-4.4-0.6-6-1.1C2275.7,1604.5,2270.1,1601.6,2267.7,1599.7z"/>
		<path class="st5" d="M2242.2,1588.2c-0.2,1.6,0.4-2.8,0.4-2.8c6.2,3.1,15.6,0,12.5,10.7C2250.6,1594.4,2244.8,1591,2242.2,1588.2z
			"/>
		<path class="st5" d="M2414.4,1365c-2.7-3.1-2-8,1.6-11.1c3.5-3.1,8.6-3.1,11.3-0.1c2.7,3.1,2,8-1.6,11.1
			C2422.1,1368,2417.1,1368,2414.4,1365z"/>
		<path class="st5" d="M2395.6,1384.4c-2.8-9.5,0.3-15.7,7.2-17c11.2-0.6,7.5,10,3.7,14.9C2403,1385.9,2398.2,1387.2,2395.6,1384.4z
			"/>
		<path class="st5" d="M2379.6,1415.9c-0.4-7.2,0.2-27.2,10.8-23.5c1.9,2.5,0.6,11.2-1.1,16.4
			C2386.4,1414.8,2382.1,1418.2,2379.6,1415.9z"/>
		<path class="st5" d="M2365.4,1455.4c-6.9-11.8,1.2-21.8,8.7-27.4c1.3,6.9,0.6,11.2,0.3,17.3
			C2371.8,1452.5,2367.9,1457.3,2365.4,1455.4z"/>
		<path class="st5" d="M2351.8,1496.8c-3.8-10.1,2.5-22.6,9.9-28.2c1.3,6.9,0.6,11.2-1.2,17.1
			C2358,1493.2,2354.1,1498.2,2351.8,1496.8z"/>
		<path class="st5" d="M2338.7,1541.3c-1.3-11.5-1.9-22.8,8.1-30.3c1.3,6.9,0.6,11.2,0.2,16.8
			C2344.7,1536.4,2341,1542.7,2338.7,1541.3z"/>
		<path class="st5" d="M2324.8,1582.2c-8.5-13,3.3-18,9-26.2c1.3,6.9,0.6,11.2,0,15.9C2331.1,1579,2327.1,1583.5,2324.8,1582.2z"/>
		<path class="st5" d="M2306.2,1602.2c-9.3-6.8,4.4-9.3,6.9-11.2c9.4-3.1,6.2,3.1,3.9,9.2C2313.5,1603.3,2308.6,1604,2306.2,1602.2z
			"/>
		<path class="st5" d="M2283.1,1600.8c5.1-6.7,12.6,3.3,17,3.9c-2.5,1.9-2.5,1.9-4.5,1.9C2291.2,1606.1,2285.6,1603.4,2283.1,1600.8
			z"/>
		<path class="st5" d="M2257.2,1587.3c-2.6-3-0.9-3.3,3.9-0.5c4.8,2.9,10.9,7.6,13.5,10.4c2.6,2.8,0.8,2.8-4,0.2
			C2265.8,1594.8,2259.8,1590.3,2257.2,1587.3z"/>
		<path class="st5" d="M2230.9,1572.2c-2.7-3.1-1-3.8,3.8-1.1c4.8,2.7,11,7.7,13.6,10.8c2.7,3.1,0.8,3.1-4,0.4
			C2239.6,1579.7,2233.6,1575.3,2230.9,1572.2z"/>
		<path class="st5" d="M2206.2,1564.6c-2.6-2.7-1.2-4.5,3.3-3.6c4.5,0.9,10.3,4.5,12.9,7.5c2.6,3,1,4-3.5,2.8
			C2214.4,1570.1,2208.8,1567.3,2206.2,1564.6z"/>
		<path class="st5" d="M2183.9,1568.6c-2.5-7.4,4.4-8.7,8.7-8.1c4.4,0.6,10.6,3.7,3.1,10.5
			C2191.8,1572.3,2186.5,1571.5,2183.9,1568.6z"/>
		<path class="st5" d="M2366.1,1390.5c-1.3-6.2-3.2-24.3,9.9-22.4c1.9,2.5,0.6,11.2,0.1,16.6
			C2373.2,1390.7,2368.8,1393.6,2366.1,1390.5z"/>
		<path class="st5" d="M2352,1430.3c-3.4-10.4-4.1-21.6,3.4-27.3c5-3.8,10.6,3.7,5.9,18.8C2358.8,1429.4,2354.7,1433.4,2352,1430.3z
			"/>
		<path class="st5" d="M2338.7,1473.3c-7.6-9.1,1.2-23.4,6.2-27.2c5-3.8,5.6,7.5,3.1,18.1
			C2345.5,1472.2,2341.4,1476.4,2338.7,1473.3z"/>
		<path class="st5" d="M2325,1514.7c-3.8-11.7-2.6-20.4,7.4-27.9c3.8,5,5,11.9,2,19.7C2331.9,1514.2,2327.8,1518.3,2325,1514.7z"/>
		<path class="st5" d="M2311.1,1555.7c1.4-7.1-7.4-24,6.3-26.5c11.2-0.6,2.5,13.7,3.7,21.2C2318.7,1558,2314.2,1560.4,2311.1,1555.7
			z"/>
		<path class="st5" d="M2293.2,1578.3c-4.4-4.1-5.7-10.9-0.7-14.7c10-7.5,21.2,7.5,12.6,18C2301.7,1585,2296.3,1583.4,2293.2,1578.3
			z"/>
		<path class="st5" d="M2270.3,1578.3c-1.5-4.7-0.9-9.1,3.5-8.5c8.7,1.2,16.9,6.8,10,18.9
			C2279.5,1588.1,2273.4,1583.4,2270.3,1578.3z"/>
		<path class="st5" d="M2244.8,1566.2c-3-4.5-1.6-6.5,3.1-4.3c4.7,2.2,11,8.2,14.1,13.1c3.1,4.9,1.6,6.7-3.2,4.1
			C2254,1576.5,2247.7,1570.7,2244.8,1566.2z"/>
		<path class="st5" d="M2219,1553.4c14.3-11.6,11.8,5.9,18,9c0,0,8.8,16.8-4.4,1.8C2227.8,1561.6,2221.7,1556.9,2219,1553.4z"/>
		<path class="st5" d="M2194.5,1547.2c-2.7-3.1-1.3-5.1,3.2-4.2c4.5,0.9,10.3,4.5,13,7.6c2.7,3.2,1.2,4.5-3.3,3.5
			C2202.9,1553.1,2197.2,1550.2,2194.5,1547.2z"/>
		<path class="st5" d="M2171.5,1548c-1.4-1.8-3.2-4.3,1.7-8.1c-1.2,8.7,20.6-3.8,10.5,12.3C2179.7,1552.7,2174.2,1551.1,2171.5,1548
			z"/>
		<path class="st5" d="M2151.2,1560.5c-2.7-3.1-2-8,1.7-10.8c3.6-2.8,8.9-2,11.6,1.1c2.7,3.1,1.8,7.2-1.9,10
			C2158.9,1563.5,2153.9,1563.5,2151.2,1560.5z"/>
		<path class="st5" d="M2132,1577.3c-2.7-3.1-2-8,1.6-11.1c3.5-3.1,8.6-3.1,11.3-0.1c2.7,3.1,2,8-1.6,11.1
			C2139.7,1580.3,2134.6,1580.3,2132,1577.3z"/>
		<path class="st5" d="M2323.3,1439.5c-7.1-10.8-5.3-23.9,4.1-27c5-3.8,12.5,6.2,5.8,20.8C2330.6,1441.1,2326.3,1444,2323.3,1439.5z
			"/>
		<path class="st5" d="M2309.2,1479.2c-1.2-9.3-8.1-23.7,5.7-26.2c5-3.8,12.5,6.2,4.6,21.8
			C2316.9,1482.2,2312.3,1484.1,2309.2,1479.2z"/>
		<path class="st5" d="M2293.7,1512.1c0.7-8.4-6.8-18.4,5-23.4c8.7,1.2,14.4,8.7,6.1,22.8C2302,1517.9,2297,1518,2293.7,1512.1z"/>
		<path class="st5" d="M2275.8,1534.7c-0.1-9.2-5.2-21.1,5.5-17.3c8.7,1.2,18.1,13.7,7.2,23.6
			C2285.1,1544.9,2279.3,1541.7,2275.8,1534.7z"/>
		<path class="st5" d="M2254.3,1540.9c-0.5-2.9-4.2-7.9-1.7-9.8c5.6-8.1,27.5,10.6,15.5,21.3
			C2263.9,1552.9,2257.7,1547.4,2254.3,1540.9z"/>
		<path class="st5" d="M2230.4,1537c-2.9-2.7-2.2-7-2.2-7c6.9-1.3,28.1,6.2,16.1,18.8C2239.8,1547.3,2233.5,1541.9,2230.4,1537z"/>
		<path class="st5" d="M2206.1,1530.9c-2.2-2.2,0.3-4-1.6-6.5c3.7,5,25-3.1,15.1,16.3C2215,1539.4,2209,1535.1,2206.1,1530.9z"/>
		<path class="st5" d="M2181.9,1525.7c-2.9-3.8-1.7-6.7,2.8-5.9c4.4,0.7,10.4,5,13.3,9.1c2.9,4.1,1.6,6.3-2.9,5.3
			C2190.6,1533.2,2184.7,1529.5,2181.9,1525.7z"/>
		<path class="st5" d="M2158.8,1526c-1.1-1.6-3-4.1,2-7.9c-1.2,8.7,20.6-3.8,10.6,13.4C2167.1,1531.7,2161.6,1529.4,2158.8,1526z"/>
		<path class="st5" d="M2138.1,1537.1c-2.7-3.1-2-8,1.7-10.7c3.7-2.6,9-1.5,11.7,1.8c2.7,3.3,1.8,7.3-2,9.6
			C2145.9,1540.2,2140.8,1540.1,2138.1,1537.1z"/>
		<path class="st5" d="M2118.9,1553.9c-2.7-3.1-2-8,1.6-11.1c3.5-3.1,8.6-3.1,11.3-0.1c2.7,3.1,2,8-1.6,11.1
			C2126.6,1556.9,2121.6,1557,2118.9,1553.9z"/>
		<path class="st5" d="M2099.6,1570.7c-2.7-3.1-2-8,1.6-11.1c3.5-3.1,8.6-3.1,11.3-0.1c2.7,3.1,2,8-1.6,11.1
			C2107.4,1573.8,2102.3,1573.8,2099.6,1570.7z"/>
		<path class="st5" d="M2080.4,1587.6c-2.7-3.1-2-8,1.6-11.1c3.5-3.1,8.6-3.1,11.3-0.1c2.7,3.1,2,8-1.6,11.1
			C2088.1,1590.6,2083.1,1590.6,2080.4,1587.6z"/>
		<path class="st5" d="M2275.7,1467c-2-6.5-2.7-17.7-0.2-19.6c13.1-13.7,11.9,10.6,11.8,21.2
			C2284.4,1474.4,2279.2,1473.6,2275.7,1467z"/>
		<path class="st5" d="M2257.7,1489c-2.7-6.6-3.4-17.8,1-17.2c14.3-6.9,11.9,10.6,11.5,22.8
			C2266.9,1498.3,2261.2,1495.7,2257.7,1489z"/>
		<path class="st5" d="M2237.3,1500.4c-7.9-10.4,2.1-17.9,8.3-14.8c6.2,3.1,13.7,13.1,4.9,23.6
			C2246.7,1510.8,2240.8,1506.7,2237.3,1500.4z"/>
		<path class="st5" d="M2215,1503.1c-0.6-1.9-4.3-6.9-1.8-8.7c5.6-8.1,27.5,10.6,15.4,19.3C2224.4,1513.7,2218.3,1509,2215,1503.1z"
			/>
		<path class="st5" d="M2191.6,1501.2c-1.5-1.2-0.9-5.6-0.9-5.6c5.6-8.1,23.7,5.6,14.5,16.1
			C2200.8,1511.1,2194.7,1506.4,2191.6,1501.2z"/>
		<path class="st5" d="M2168,1499.1c-3-4.5-2-8.3,2.2-8.2c4.3,0.1,10.3,4.4,13.4,9.4c3.1,5,2.1,8.4-2.3,7.8
			C2177,1507.5,2171.1,1503.6,2168,1499.1z"/>
		<path class="st5" d="M2145.5,1501.5c-4.1-4-3.5-8.4,3.4-9.6c6.9-1.3,23.1,10,9.2,15.3C2153.9,1507.7,2148.3,1505.3,2145.5,1501.5z
			"/>
		<path class="st5" d="M2125.1,1513.7c-2.7-3.1-2-8,1.6-10.9c3.6-2.9,8.9-2,11.7,1.5c2.8,3.5,1.9,7.7-1.8,10.1
			C2132.8,1516.8,2127.7,1516.7,2125.1,1513.7z"/>
		<path class="st5" d="M2105.8,1530.5c-2.7-3.1-2-8,1.6-11.1c3.5-3.1,8.6-3.1,11.3-0.1c2.7,3.1,2,8-1.6,11.1
			C2113.5,1533.5,2108.5,1533.6,2105.8,1530.5z"/>
		<path class="st5" d="M2086.6,1547.4c-2.7-3.1-2-8,1.6-11.1c3.5-3.1,8.6-3.1,11.3-0.1c2.7,3.1,2,8-1.6,11.1
			C2094.3,1550.4,2089.3,1550.4,2086.6,1547.4z"/>
		<path class="st5" d="M2067.3,1564.2c-2.7-3.1-2-8,1.6-11.1c3.5-3.1,8.6-3.1,11.3-0.1c2.7,3.1,2,8-1.6,11.1
			C2075,1567.2,2070,1567.2,2067.3,1564.2z"/>
		<path class="st5" d="M2048.1,1581c-2.7-3.1-2-8,1.6-11.1c3.5-3.1,8.6-3.1,11.3-0.1c2.7,3.1,2,8-1.6,11.1
			C2055.8,1584,2050.8,1584.1,2048.1,1581z"/>
		<path class="st5" d="M2028.9,1597.9c-2.7-3.1-2-8,1.6-11.1c3.5-3.1,8.6-3.1,11.3-0.1c2.7,3.1,2,8-1.6,11.1
			C2036.6,1600.9,2031.5,1600.9,2028.9,1597.9z"/>
		<path class="st5" d="M2219.3,1455c-4.3-5-5.5-11.8-0.5-15.6c15.6,0,18.7,9.3,13.7,24.1C2228.8,1465.9,2222.8,1461.9,2219.3,1455z"
			/>
		<path class="st5" d="M2198,1462.6c-8-9.4,2-16.9,8.2-13.8c6.2,3.1,13.7,13.1,5.3,23.8C2207.5,1473.6,2201.5,1469,2198,1462.6z"/>
		<path class="st5" d="M2175.8,1465.8c-4.4-6.4-3.8-10.7,3.1-12c8.7,1.2,18.1,13.7,10.5,21.9
			C2185.1,1475.9,2179,1471.5,2175.8,1465.8z"/>
		<path class="st5" d="M2153.3,1468.6c-5.1-3.5-4.5-7.9,2.4-9.2c6.9-1.3,20.6,11.8,10.7,17.2
			C2162.3,1476.9,2156.4,1473.4,2153.3,1468.6z"/>
		<path class="st5" d="M2131.8,1475.5c-2.8-3.7-2.1-8.4,1.8-10.2c3.9-1.8,9.4,0.5,12.4,4.9c3,4.4,2.1,8.7-1.9,9.8
			C2140.1,1481.1,2134.6,1479.2,2131.8,1475.5z"/>
		<path class="st5" d="M2112,1490.3c-2.7-3.1-2-8,1.6-11.1c3.5-3.1,8.6-3,11.4,0.4s2,8-1.6,10.9
			C2119.7,1493.3,2114.7,1493.3,2112,1490.3z"/>
		<path class="st5" d="M2092.8,1507.1c-2.7-3.1-2-8,1.6-11.1c3.5-3.1,8.6-3.1,11.3-0.1c2.7,3.1,2,8-1.6,11.1
			C2100.5,1510.1,2095.4,1510.2,2092.8,1507.1z"/>
		<path class="st5" d="M2073.5,1524c-2.7-3.1-2-8,1.6-11.1c3.5-3.1,8.6-3.1,11.3-0.1c2.7,3.1,2,8-1.6,11.1
			C2081.2,1527,2076.2,1527,2073.5,1524z"/>
		<path class="st5" d="M2054.3,1540.8c-2.7-3.1-2-8,1.6-11.1c3.5-3.1,8.6-3.1,11.3-0.1c2.7,3.1,2,8-1.6,11.1
			C2062,1543.8,2056.9,1543.9,2054.3,1540.8z"/>
		<path class="st5" d="M2035,1557.6c-2.7-3.1-2-8,1.6-11.1c3.5-3.1,8.6-3.1,11.3-0.1c2.7,3.1,2,8-1.6,11.1
			C2042.7,1560.7,2037.7,1560.7,2035,1557.6z"/>
		<path class="st5" d="M2015.8,1574.5c-2.7-3.1-2-8,1.6-11.1c3.5-3.1,8.6-3.1,11.3-0.1c2.7,3.1,2,8-1.6,11.1
			C2023.5,1577.5,2018.5,1577.5,2015.8,1574.5z"/>
		<path class="st5" d="M1996.5,1591.3c-2.7-3.1-2-8,1.6-11.1c3.5-3.1,8.6-3.1,11.3-0.1c2.7,3.1,2,8-1.6,11.1
			C2004.3,1594.3,1999.2,1594.4,1996.5,1591.3z"/>
		<path class="st5" d="M1977.3,1608.2c-2.7-3.1-2-8,1.6-11.1c3.5-3.1,8.6-3.1,11.3-0.1c2.7,3.1,2,8-1.6,11.1
			C1985,1611.2,1980,1611.2,1977.3,1608.2z"/>
		<path class="st5" d="M2159.5,1428.7c-3.2-4.9-2.6-9.2,2.4-13c6.9-1.3,23.1,10,10.6,20.6
			C2168.6,1437.6,2162.7,1434.1,2159.5,1428.7z"/>
		<path class="st5" d="M2138.4,1437.4c-1.5-2.9-2.7-9.8-0.2-11.6c9.4-3.1,21.2,7.5,12.8,17.2
			C2147.1,1444.3,2141.4,1441.8,2138.4,1437.4z"/>
		<path class="st5" d="M2118.2,1450.2c-2.5-7.5,0.7-13.8,9.4-12.5c-0.6,4.4,14.4,8.7,2.3,14.3
			C2126.1,1454,2120.9,1453.3,2118.2,1450.2z"/>
		<path class="st5" d="M2098.9,1466.9c-2.7-3.1-2-8,1.6-11.1c3.5-3.1,8.6-3.1,11.3-0.1c2.7,3.1,2,8-1.6,11.1
			C2106.6,1469.9,2101.6,1470,2098.9,1466.9z"/>
		<path class="st5" d="M2079.7,1483.7c-2.7-3.1-2-8,1.6-11.1c3.5-3.1,8.6-3.1,11.3-0.1c2.7,3.1,2,8-1.6,11.1
			C2087.4,1486.8,2082.4,1486.8,2079.7,1483.7z"/>
		<path class="st5" d="M2060.5,1500.6c-2.7-3.1-2-8,1.6-11.1c3.5-3.1,8.6-3.1,11.3-0.1c2.7,3.1,2,8-1.6,11.1
			C2068.2,1503.6,2063.1,1503.6,2060.5,1500.6z"/>
		<path class="st5" d="M2041.2,1517.4c-2.7-3.1-2-8,1.6-11.1c3.5-3.1,8.6-3.1,11.3-0.1c2.7,3.1,2,8-1.6,11.1
			C2048.9,1520.4,2043.9,1520.5,2041.2,1517.4z"/>
		<path class="st5" d="M2022,1534.3c-2.7-3.1-2-8,1.6-11.1c3.5-3.1,8.6-3.1,11.3-0.1c2.7,3.1,2,8-1.6,11.1
			C2029.7,1537.3,2024.6,1537.3,2022,1534.3z"/>
		<path class="st5" d="M2002.7,1551.1c-2.7-3.1-2-8,1.6-11.1c3.5-3.1,8.6-3.1,11.3-0.1c2.7,3.1,2,8-1.6,11.1
			C2010.4,1554.1,2005.4,1554.1,2002.7,1551.1z"/>
		<path class="st5" d="M1983.4,1567.8c-2.7-3.2-2-8.2,1.6-11.2c3.6-3,8.6-3,11.3,0c2.7,3.1,2,8-1.6,11.1
			C1991.2,1570.9,1986.2,1571,1983.4,1567.8z"/>
		<path class="st5" d="M1963.5,1583c-3-4.1,0.1-10.3,2.6-12.2c4.4,0.6,18.1-1.9,9.4,13.8C1971.9,1587.5,1966.5,1586.9,1963.5,1583z"
			/>
		<path class="st5" d="M1943.1,1597.1c-3.3-4.6-3.1-10.5,0.8-13c3.8-2.4,9.6-0.7,12.8,3.5c3.2,4.2,2.6,9.6-1,12.4
			C1952,1602.8,1946.4,1601.7,1943.1,1597.1z"/>
		<path class="st5" d="M1923.2,1612.3c-4.6-5.9-1.4-12.2,1.1-14.1c11.2-0.6,19.4,5,11.6,17.2
			C1932.2,1618.4,1926.7,1617.2,1923.2,1612.3z"/>
		<path class="st5" d="M2105.1,1426.7c-2.7-3.1-2-8,1.6-11.1c3.5-3.1,8.6-3.1,11.3-0.1c2.7,3.1,2,8-1.6,11.1
			C2112.8,1429.7,2107.8,1429.7,2105.1,1426.7z"/>
		<path class="st5" d="M2085.9,1443.5c-2.7-3.1-2-8,1.6-11.1c3.5-3.1,8.6-3.1,11.3-0.1c2.7,3.1,2,8-1.6,11.1
			C2093.6,1446.5,2088.5,1446.6,2085.9,1443.5z"/>
		<path class="st5" d="M2066.6,1460.4c-2.7-3.1-2-8,1.6-11.1c3.5-3.1,8.6-3.1,11.3-0.1c2.7,3.1,2,8-1.6,11.1
			C2074.3,1463.4,2069.3,1463.4,2066.6,1460.4z"/>
		<path class="st5" d="M2047.4,1477.2c-2.7-3.1-2-8,1.6-11.1c3.5-3.1,8.6-3.1,11.3-0.1c2.7,3.1,2,8-1.6,11.1
			C2055.1,1480.2,2050.1,1480.2,2047.4,1477.2z"/>
		<path class="st5" d="M2028.1,1494c-2.7-3.1-2-8,1.6-11.1c3.5-3.1,8.6-3.1,11.3-0.1c2.7,3.1,2,8-1.6,11.1
			C2035.9,1497,2030.8,1497.1,2028.1,1494z"/>
		<path class="st5" d="M2008.9,1510.9c-2.7-3.1-2-8,1.6-11.1c3.5-3.1,8.6-3.1,11.3-0.1c2.7,3.1,2,8-1.6,11.1
			C2016.6,1513.9,2011.6,1513.9,2008.9,1510.9z"/>
		<path class="st5" d="M1989.6,1527.6c-2.7-3.1-2-8.1,1.6-11.1c3.5-3.1,8.6-3.1,11.3-0.1c2.7,3.1,2,8-1.6,11.1
			C1997.4,1530.7,1992.3,1530.8,1989.6,1527.6z"/>
		<path class="st5" d="M1968.9,1541.2c-3.1-4.1-2.4-9,1.6-11c4-2,9.6-0.9,12.4,2.6c2.8,3.4,2.1,8.4-1.6,11.1
			C1977.6,1546.4,1972.1,1545.2,1968.9,1541.2z"/>
		<path class="st5" d="M1946.8,1551.3c-3.2-10.4,3.6-11.7,8-11.1c6.2,3.1,16.9,6.8,5.5,16.2
			C1956.3,1558.4,1950.3,1556.2,1946.8,1551.3z"/>
		<path class="st5" d="M1924.6,1561.3c-3.5-3.5-4.8-10.4,0.2-14.2c13.7-2.5,16.9,6.8,13.7,20.3
			C1934.6,1569.5,1928.4,1566.8,1924.6,1561.3z"/>
		<path class="st5" d="M1903.5,1573.7c-4.3-3.5-5.5-10.4-0.5-14.1c10-7.5,23.1,10,14.4,20.1
			C1913.6,1582.2,1907.5,1579.7,1903.5,1573.7z"/>
		<path class="st5" d="M1884.2,1590.4c-4.9-5.2-6.2-12-1.2-15.8c10-7.5,23.1,10,14.6,20.5
			C1894.1,1598.3,1888.2,1596.4,1884.2,1590.4z"/>
		<path class="st5" d="M1866.8,1611.4c3.1-7.4-12.5-23,5-20.5c6.2,3.1,13.7,13.1,7.6,23.5C1876.2,1618.2,1870.7,1617,1866.8,1611.4z
			"/>
		<path class="st5" d="M2053.6,1437c-2.7-3.1-2-8,1.6-11.1c3.5-3.1,8.6-3.1,11.3-0.1c2.7,3.1,2,8-1.6,11.1
			C2061.3,1440,2056.2,1440,2053.6,1437z"/>
		<path class="st5" d="M2034.3,1453.8c-2.7-3.1-2-8,1.6-11.1c3.5-3.1,8.6-3.1,11.3-0.1c2.7,3.1,2,8-1.6,11.1
			C2042,1456.8,2037,1456.9,2034.3,1453.8z"/>
		<path class="st5" d="M2015.1,1470.6c-2.7-3.1-2-8,1.6-11.1c3.5-3.1,8.6-3.1,11.3-0.1c2.7,3.1,2,8-1.6,11.1
			C2022.8,1473.7,2017.8,1473.7,2015.1,1470.6z"/>
		<path class="st5" d="M1995.8,1487.5c-2.7-3.1-2-8,1.6-11.1c3.5-3.1,8.6-3.1,11.3-0.1c2.7,3.1,2,8-1.6,11.1
			C2003.5,1490.5,1998.5,1490.5,1995.8,1487.5z"/>
		<path class="st5" d="M1975.9,1502.7c-2.9-3.6-2-8.2,1.8-10.5c3.9-2.4,9-2.2,11.7,0.9c2.7,3.1,2,8-1.6,11
			C1984.2,1507,1978.8,1506.3,1975.9,1502.7z"/>
		<path class="st5" d="M1953.1,1511.5c-4.6-5.7-1.5-11.9,2.9-11.3c4.4,0.6,19.4,5,10.6,16.3
			C1962.4,1518.2,1956.4,1515.9,1953.1,1511.5z"/>
		<path class="st5" d="M1928.9,1516.8c-3.6-5.2-2.8-9.9,1.8-10.5c4.6-0.7,11.1,2.5,14.4,7.2c3.4,4.7,2.6,9.4-1.8,10.6
			C1938.9,1525.2,1932.5,1522,1928.9,1516.8z"/>
		<path class="st5" d="M1904.7,1522.3c-0.5-2.6-4.2-7.6-4.2-7.6c6.2-12.5,26.2,3.7,19.1,15.7
			C1915.2,1531.7,1908.6,1528.1,1904.7,1522.3z"/>
		<path class="st5" d="M1882,1531.2c-3.4-4-4.7-10.9,0.3-14.6c6.9-1.3,25,12.5,14.3,22.3C1892.6,1540.7,1886.1,1537.4,1882,1531.2z"
			/>
		<path class="st5" d="M1862,1546c-3.3-3.8-9-11.3-1.5-16.9c14.4-6.9,20.6,11.8,15.3,22.9C1872.3,1554.9,1866.1,1552.4,1862,1546z"
			/>
		<path class="st5" d="M1844.9,1567.6c0-7.3-6.8-21.7,6.3-19.8c4.4,0.6,9.4,12.5,6.5,23.3
			C1854.6,1575.2,1848.9,1573.8,1844.9,1567.6z"/>
		<path class="st5" d="M1830.1,1594.7c-2.7-5.6-5.8-15-0.8-18.8c10.6-11.9,16.2,11.2,12.6,19.9
			C1839.2,1600.7,1833.9,1600.3,1830.1,1594.7z"/>
		<path class="st5" d="M1816.3,1624c-8.2-8.7-2.6-16.8,3-25c12.5,6.2,13.7,13.1,8,24.4C1824.8,1628.6,1819.8,1628.8,1816.3,1624z"/>
		<path class="st5" d="M2002,1447.3c-2.7-3.1-2-8,1.6-11.1c3.5-3.1,8.6-3.1,11.3-0.1c2.7,3.1,2,8-1.6,11.1
			C2009.7,1450.3,2004.7,1450.3,2002,1447.3z"/>
		<path class="st5" d="M1982.8,1464.1c-2.7-3.1-2-8,1.6-11.1c3.5-3.1,8.6-3.1,11.3-0.1c2.7,3.1,2,8-1.6,11.1
			C1990.5,1467.1,1985.4,1467.1,1982.8,1464.1z"/>
		<path class="st5" d="M1961.9,1477.2c-2.9-3.6-1.8-7.7,2.2-9.6c4.1-1.9,9.4-1.3,12.2,1.9c2.7,3.2,1.9,8-1.9,10.3
			C1970.4,1482.2,1964.8,1480.8,1961.9,1477.2z"/>
		<path class="st5" d="M1937.5,1482.6c-3.2-4.2-1.9-7.8,2.7-8.4c4.6-0.6,10.7,1.8,13.8,5.6c3,3.8,1.9,7.9-2.5,8.9
			C1947,1489.6,1940.7,1486.8,1937.5,1482.6z"/>
		<path class="st5" d="M1911.6,1484c-1.8-3.6-1.8-3.6-3.7-6.1c5-3.8,28.7,1.8,18.5,14.2C1921.7,1492.4,1915,1488.7,1911.6,1484z"/>
		<path class="st5" d="M1885.6,1485.3c-0.8-1.8-0.2-6.2-2.1-8.7c6.9-1.3,26.2,3.7,17.2,17.4
			C1896,1494.5,1889.3,1490.5,1885.6,1485.3z"/>
		<path class="st5" d="M1861.2,1490.2c-1.4-3.6-2.7-10.5-0.2-12.3c9.4-3.1,27.5,10.6,14.9,20.4
			C1871.7,1499.4,1865.1,1495.9,1861.2,1490.2z"/>
		<path class="st5" d="M1839.8,1502c-3.1-9.7-6.2-19.1,6.9-17.2c6.2,3.1,13.7,13.1,7.1,23.4C1850,1510.7,1843.9,1508.1,1839.8,1502z
			"/>
		<path class="st5" d="M1822.6,1523.2c-7-7.2-5.8-15.9-0.8-19.7c9.4-3.1,20.6,11.8,13.4,22.6C1832,1530.2,1826.5,1529,1822.6,1523.2
			z"/>
		<path class="st5" d="M1808.7,1552.1c-3.7-8.6-10.6-23,5-23c4.4,0.6,9.4,12.5,6.2,22.9C1817.4,1557.4,1812.4,1557.5,1808.7,1552.1z
			"/>
		<path class="st5" d="M1796.7,1585.4c1.5-9.5-12.3-22.6,3.3-22.6c9.4-3.1,5,11.9,7,20.5C1804.8,1589.3,1800.1,1590.2,1796.7,1585.4
			z"/>
		<path class="st5" d="M1784.5,1618.5c-4.4-9.5-6.3-27.6,8.7-23.2c6.2,3.1,2.5,13.7,1.5,20.5
			C1792.2,1621.6,1787.7,1622.7,1784.5,1618.5z"/>
		<path class="st5" d="M1770.1,1646.7c-5.6-6.4-1.9-17,5-18.2c9.4-3.1,3.1,9.4,5.5,16.4C1777.7,1649.5,1773,1650.2,1770.1,1646.7z"
			/>
		<path class="st5" d="M1948.4,1453c-0.6-5.2,0-9.6,4.4-9c6.9-1.3,15.6,0,8.1,11.7C1956.9,1457.9,1951.2,1456.4,1948.4,1453z"/>
		<path class="st5" d="M1923.4,1456.7c-1.1-1.4,1.4-3.3-0.5-5.8c3.1-6.2,28.7,1.8,14.4,11.7
			C1932.6,1463.2,1926.3,1460.4,1923.4,1456.7z"/>
		<path class="st5" d="M1896.4,1455.9c-1.6-11.1,6.5-5.5,10.9-4.9c1.9,2.5,15,4.4,3.8,12.5
			C1906.1,1463.3,1899.5,1459.8,1896.4,1455.9z"/>
		<path class="st5" d="M1868,1452.7c-3.7-5-2.3-8.1,3.3-7.1c5.5,1,12.6,5.2,15.9,9.4c3.2,4.2,1.8,7.5-3.2,7.2
			C1878.9,1462,1871.7,1457.7,1868,1452.7z"/>
		<path class="st5" d="M1839.5,1450.5c-0.9-2.6-2.8-5.1-4.7-7.6c9.4-3.1,30.6,4.3,21.4,18C1851.2,1461,1843.8,1456.4,1839.5,1450.5z
			"/>
		<path class="st5" d="M1815.4,1457.3c-4.3-4.3-5.5-11.2-0.6-14.9c11.2-0.6,21.2,7.5,16.1,22.8
			C1826.8,1466.9,1819.9,1463.5,1815.4,1457.3z"/>
		<path class="st5" d="M1799,1479c-1.6-7.9-8.5-22.2,4.6-20.4c6.9-1.3,16.9,6.8,8.2,23C1808.9,1485.9,1803.3,1484.9,1799,1479z"/>
		<path class="st5" d="M1788.3,1512.5c-2.1-9.6-7.1-21.4,2.2-24.5c9.4-3.1,11.9,10.6,8.1,22.4
			C1796.5,1516.3,1791.9,1517.3,1788.3,1512.5z"/>
		<path class="st5" d="M1777.6,1548.5c-5.7-7.4-5.1-27.4,8-25.6c6.2,3.1,2.5,13.7,1.4,21.2C1785,1550.7,1780.8,1552.6,1777.6,1548.5
			z"/>
		<path class="st5" d="M1767.1,1585.1c-2.6-7.3-8.3-30.3,6.7-26c3.7,5,2.5,13.7,2.5,21.1C1774.2,1586.9,1770.1,1588.9,1767.1,1585.1
			z"/>
		<path class="st5" d="M1754.8,1618c-1.6-8.3-2.2-19.6,4.7-20.8c9.4-3.1,3.1,9.4,5,17C1762,1620,1757.6,1621.5,1754.8,1618z"/>
		<path class="st5" d="M1738.8,1642.5c-3-4.1,0.1-25.9,12-15.3c3.8,5,3.1,9.4-1.2,14C1746.4,1645.3,1741.5,1645.6,1738.8,1642.5z"/>
		<path class="st5" d="M1719.6,1659.6c-2.7-3.1-2-8,1.6-11.1c3.5-3.1,8.6-3.2,11.3-0.1c2.7,3.1,2,8.1-1.6,11.2
			C1727.3,1662.6,1722.2,1662.6,1719.6,1659.6z"/>
		<path class="st5" d="M1882.9,1432.6c-3-3.5-0.9-5.3,4.5-4.5c5.4,0.9,11.9,3.8,14.6,6.9c2.7,3.1,0.9,5.5-4.2,5.1
			S1886,1436.1,1882.9,1432.6z"/>
		<path class="st5" d="M1851.5,1424.8c-3.4-4-1.2-5.7,4.8-4c6,1.7,13.3,5.8,16.4,9.6c3.2,3.7,1.2,5.8-4.5,4.5
			C1862.4,1433.4,1854.9,1428.8,1851.5,1424.8z"/>
		<path class="st5" d="M1820.2,1418.2c-3.5-4.2-1.7-6.6,4-5.5c5.7,1.1,13.1,5.3,16.6,9.4c3.5,4.1,1.7,6.6-3.9,5.6
			C1831.2,1426.6,1823.8,1422.3,1820.2,1418.2z"/>
		<path class="st5" d="M1793.8,1420.6c-2-3.8-3.9-6.3-3.9-6.3c3.7-10.6,33.7-1.9,18.7,12.2
			C1803.8,1427.3,1797.3,1424.8,1793.8,1420.6z"/>
		<path class="st5" d="M1776.4,1439.9c-7.1-6.3-3.4-16.9,3.5-18.2c8.7,1.2,16.9,6.8,7.8,17.6
			C1784.7,1443.5,1779.7,1443.8,1776.4,1439.9z"/>
		<path class="st5" d="M1767.5,1475.6c-3.2-7-8.9-30.1,6.1-25.7c3.8,5,2.5,13.7,2.4,20C1774.6,1476.7,1770.7,1479.3,1767.5,1475.6z"
			/>
		<path class="st5" d="M1761,1517.2c-2.8-3.1-3.9-11.7-2.8-19.5c1.1-7.9,4.3-11.7,7.4-8.2s4.7,12.8,3.3,20.3
			C1767.4,1517.2,1763.7,1520.3,1761,1517.2z"/>
		<path class="st5" d="M1751.1,1555.1c-4.2-11-2.9-19.7,7.1-27.2c5.6,7.5,2.5,13.7,1.2,20.2
			C1757.5,1555.1,1753.7,1558.1,1751.1,1555.1z"/>
		<path class="st5" d="M1739.8,1590.2c-2.8-7.3-2.2-27.3,8.4-23.6c1.9,2.5,0.6,11.2,0.4,17.9
			C1746.5,1590.9,1742.4,1593.2,1739.8,1590.2z"/>
		<path class="st5" d="M1725.2,1618c-2.7-3-2.4-9,0.4-13.8s7.1-6.7,9.7-3.7c2.7,3,2.8,9.9,0,14.7
			C1732.5,1620,1727.9,1621,1725.2,1618z"/>
		<path class="st5" d="M1706.5,1636.2c-2.7-3.1-2-8,1.6-11.2c3.5-3.1,8.6-3.3,11.2-0.2c2.7,3.1,2,8.2-1.5,11.3
			C1714.2,1639.2,1709.2,1639.3,1706.5,1636.2z"/>
		<path class="st5" d="M1687.3,1653c-2.7-3.1-2-8,1.6-11.1c3.5-3.1,8.6-3.1,11.3-0.1c2.7,3.1,2,8-1.6,11.1
			C1695,1656.1,1689.9,1656.1,1687.3,1653z"/>
		<path class="st5" d="M1668,1669.9c-2.7-3.1-2-8,1.6-11.1c3.5-3.1,8.6-3.1,11.3-0.1c2.7,3.1,2,8-1.6,11.1
			C1675.7,1672.9,1670.7,1672.9,1668,1669.9z"/>
		<path class="st5" d="M1806.8,1397.4c-2.7-2.6-0.3-3.8,5.5-2.5c5.8,1.2,12.7,4.4,15.5,7.1c2.8,2.7,0.3,3.9-5.5,2.6
			C1816.4,1403.4,1809.5,1400.1,1806.8,1397.4z"/>
		<path class="st5" d="M1779.5,1397.9c-2.5-2.3-0.8-4.9,3.9-5.5s10.9,1.2,13.5,3.8c2.7,2.5,0.7,4.6-4.2,5
			C1787.8,1401.5,1782,1400.2,1779.5,1397.9z"/>
		<path class="st5" d="M1761,1415.2c-3.6-7.8-2.4-16.5,10.8-14.6c1.9,2.5,1.3,6.9-1.1,11C1767.4,1415.2,1763.2,1417.1,1761,1415.2z"
			/>
		<path class="st5" d="M1751.4,1449.3c1-6.9-5.9-21.3,5.4-21.9c2.5-1.9,3.1,9.4,1.4,13C1756.7,1447,1753.6,1451.1,1751.4,1449.3z"/>
		<path class="st5" d="M1745.8,1491.4c-3.4-10.2-6.5-19.6,1-25.2c3.1-6.2,8.7,1.2,5.1,14.6
			C1750.9,1488.7,1748.1,1493.3,1745.8,1491.4z"/>
		<path class="st5" d="M1737.6,1530.9c-0.7-10.5-3.8-19.8,6.2-27.3c3.8,5,5,11.9,1.3,18.7C1743.3,1529.3,1739.8,1533,1737.6,1530.9z
			"/>
		<path class="st5" d="M1726.1,1565.5c-9.7-10-1.6-20,7.7-23.2c1.3,6.9,0.6,11.2,0.6,16.3C1732.3,1565,1728.5,1567.9,1726.1,1565.5z
			"/>
		<path class="st5" d="M1711.8,1593.8c-4.2-8.4-1.1-14.7,5.8-15.9c7.5-5.6,5.6,7.5,3.9,12.3
			C1718.9,1595.3,1714.4,1596.7,1711.8,1593.8z"/>
		<path class="st5" d="M1693.4,1612.8c-2.7-3.1-2-8,1.6-11.2c3.5-3.1,8.5-3.5,11.1-0.5c2.6,3,2.1,8.3-1.4,11.5
			C1701.1,1615.8,1696.1,1615.9,1693.4,1612.8z"/>
		<path class="st5" d="M1674.2,1629.7c-2.7-3.1-2-8,1.6-11.1c3.5-3.1,8.6-3.1,11.3-0.1c2.7,3.1,2,8-1.6,11.1
			C1681.9,1632.7,1676.9,1632.7,1674.2,1629.7z"/>
		<path class="st5" d="M1654.9,1646.5c-2.7-3.1-2-8,1.6-11.1c3.5-3.1,8.6-3.1,11.3-0.1c2.7,3.1,2,8-1.6,11.1
			C1662.7,1649.5,1657.6,1649.5,1654.9,1646.5z"/>
		<path class="st5" d="M1635.7,1663.3c-2.7-3.1-2-8,1.6-11.1c3.5-3.1,8.6-3.1,11.3-0.1c2.7,3.1,2,8-1.6,11.1
			C1643.4,1666.3,1638.4,1666.4,1635.7,1663.3z"/>
		<path class="st5" d="M1616.5,1680.2c-2.7-3.1-2-8,1.6-11.1c3.5-3.1,8.6-3.1,11.3-0.1c2.7,3.1,2,8-1.6,11.1
			C1624.2,1683.2,1619.1,1683.2,1616.5,1680.2z"/>
		<path class="st5" d="M1751.8,1402.5c-5.1-14.4,9.3-5.7,12.4-12c-2.5,1.9-0.6,4.4-3.8,6.2C1757.1,1400.1,1753.4,1403,1751.8,1402.5
			z"/>
		<path class="st5" d="M1740.9,1434.2c-6-9.9-0.4-18,7.1-23.6c-0.6,4.4-1.2,8.7-1.2,12.9C1745,1429.7,1742.5,1434.6,1740.9,1434.2z"
			/>
		<path class="st5" d="M1734.1,1473.2c-0.4-9-1-20.2,4.6-28.3c1.3,6.9,0.6,11.2,0.6,16.4C1738.2,1468.8,1735.9,1474.1,1734.1,1473.2
			z"/>
		<path class="st5" d="M1726.4,1512.2c-2.6-9.2-1.4-17.9,3.6-21.7c7.5-5.6,1.3,6.9,2.9,11.6
			C1731.4,1509.3,1728.4,1513.6,1726.4,1512.2z"/>
		<path class="st5" d="M1714,1544.4c-8.3-8.3,2.3-20.1,9.2-21.4c1.9,2.5,3.1,9.4-1,14.4C1719.9,1543.3,1716.2,1546.4,1714,1544.4z"
			/>
		<path class="st5" d="M1699,1571c-6.3-5.5,1.8-15.5,6.1-14.9c7.5-5.6,5.6,7.5,3.6,11.2C1705.9,1572.2,1701.5,1573.7,1699,1571z"/>
		<path class="st5" d="M1680.4,1589.4c-2.7-3.1-2-8,1.6-11.1c3.5-3.1,8.5-3.3,11.2-0.3c2.6,2.9,2,8.2-1.5,11.4
			C1688.1,1592.4,1683,1592.5,1680.4,1589.4z"/>
		<path class="st5" d="M1661.1,1606.3c-2.7-3.1-2-8,1.6-11.1c3.5-3.1,8.6-3.1,11.3-0.1c2.7,3.1,2,8-1.6,11.1
			C1668.8,1609.3,1663.8,1609.3,1661.1,1606.3z"/>
		<path class="st5" d="M1641.9,1623.1c-2.7-3.1-2-8,1.6-11.1c3.5-3.1,8.6-3.1,11.3-0.1c2.7,3.1,2,8-1.6,11.1
			C1649.6,1626.1,1644.6,1626.2,1641.9,1623.1z"/>
		<path class="st5" d="M1622.6,1639.9c-2.7-3.1-2-8,1.6-11.1c3.5-3.1,8.6-3.1,11.3-0.1c2.7,3.1,2,8-1.6,11.1
			C1630.4,1643,1625.3,1643,1622.6,1639.9z"/>
		<path class="st5" d="M1603.4,1656.8c-2.7-3.1-2-8,1.6-11.1c3.5-3.1,8.6-3.1,11.3-0.1c2.7,3.1,2,8-1.6,11.1
			C1611.1,1659.8,1606.1,1659.8,1603.4,1656.8z"/>
		<path class="st5" d="M1584.2,1673.6c-2.7-3.1-2-8,1.6-11.1c3.5-3.1,8.6-3.1,11.3-0.1c2.7,3.1,2,8-1.6,11.1
			C1591.9,1676.6,1586.8,1676.7,1584.2,1673.6z"/>
		<path class="st5" d="M1564.9,1690.4c-2.7-3.1-2-8,1.6-11.1c3.5-3.1,8.6-3.1,11.3-0.1c2.7,3.1,2,8-1.6,11.1
			C1572.6,1693.5,1567.6,1693.5,1564.9,1690.4z"/>
		<path class="st5" d="M1725.1,1460.8c-0.8-9,2.3-15.3,3.6-24c6.2,3.1,3.1,9.4,1.8,12.5C1729.1,1456.1,1726.7,1461.3,1725.1,1460.8z
			"/>
		<path class="st5" d="M1716.2,1496.4c-3.7-8.4-4.3-19.7,5-22.8c4.4,0.6,3.1,9.4,1.4,12.9C1721,1493.3,1718.1,1497.6,1716.2,1496.4z
			"/>
		<path class="st5" d="M1702.9,1525.8c-3.5-8.4-0.4-14.7,6.5-15.9c7.5-5.6,3.8,5,2.2,9.9C1709,1525.1,1705.1,1527.7,1702.9,1525.8z"
			/>
		<path class="st5" d="M1686.4,1548.8c-8.2-7.7,1.2-10.8,6.2-14.6c9.4-3.1,8.1,5.6,4,12C1693.6,1550.6,1689,1551.6,1686.4,1548.8z"
			/>
		<path class="st5" d="M1667.3,1566c-2.7-3.1-2-8,1.6-11.1c3.5-3.1,8.6-3.1,11.3-0.1c2.7,3,2,8-1.6,11.1
			C1675,1569.1,1670,1569.1,1667.3,1566z"/>
		<path class="st5" d="M1648.1,1582.9c-2.7-3.1-2-8,1.6-11.1c3.5-3.1,8.6-3.1,11.3-0.1c2.7,3.1,2,8-1.6,11.1
			C1655.8,1585.9,1650.7,1585.9,1648.1,1582.9z"/>
		<path class="st5" d="M1628.8,1599.7c-2.7-3.1-2-8,1.6-11.1c3.5-3.1,8.6-3.1,11.3-0.1c2.7,3.1,2,8-1.6,11.1
			C1636.5,1602.7,1631.5,1602.8,1628.8,1599.7z"/>
		<path class="st5" d="M1609.6,1616.6c-2.7-3.1-2-8,1.6-11.1c3.5-3.1,8.6-3.1,11.3-0.1c2.7,3.1,2,8-1.6,11.1
			C1617.3,1619.6,1612.2,1619.6,1609.6,1616.6z"/>
		<path class="st5" d="M1590.3,1633.4c-2.7-3.1-2-8,1.6-11.1c3.5-3.1,8.6-3.1,11.3-0.1c2.7,3.1,2,8-1.6,11.1
			C1598,1636.4,1593,1636.4,1590.3,1633.4z"/>
		<path class="st5" d="M1571.1,1650.2c-2.7-3.1-2-8,1.6-11.1c3.5-3.1,8.6-3.1,11.3-0.1c2.7,3.1,2,8-1.6,11.1
			C1578.8,1653.2,1573.8,1653.3,1571.1,1650.2z"/>
		<path class="st5" d="M1551.8,1667.1c-2.7-3.1-2-8,1.6-11.1c3.5-3.1,8.6-3.1,11.3-0.1c2.7,3.1,2,8-1.6,11.1
			C1559.6,1670.1,1554.5,1670.1,1551.8,1667.1z"/>
		<path class="st5" d="M1691.9,1507.2c-3.1-9.2,0-15.4,11.2-16.1c-0.6,4.4-1.2,8.7-2,11.7
			C1698.5,1507.7,1694.3,1509.5,1691.9,1507.2z"/>
		<path class="st5" d="M1673.5,1525.8c-2.7-3.1-2-8,1.6-11.1c3.5-3.1,8.5-3.3,11-0.7c2.5,2.7,1.8,7.7-1.5,11.3
			C1681.2,1528.8,1676.2,1528.9,1673.5,1525.8z"/>
		<path class="st5" d="M1654.2,1542.7c-2.7-3.1-2-8,1.6-11.1c3.5-3.1,8.6-3.1,11.3-0.1c2.7,3.1,2,8-1.6,11.1
			C1661.9,1545.7,1656.9,1545.7,1654.2,1542.7z"/>
		<path class="st5" d="M1635,1559.5c-2.7-3.1-2-8,1.6-11.1c3.5-3.1,8.6-3.1,11.3-0.1c2.7,3.1,2,8-1.6,11.1
			C1642.7,1562.5,1637.7,1562.5,1635,1559.5z"/>
		<path class="st5" d="M1615.8,1576.3c-2.7-3.1-2-8,1.6-11.1c3.5-3.1,8.6-3.1,11.3-0.1c2.7,3.1,2,8-1.6,11.1
			C1623.5,1579.3,1618.4,1579.4,1615.8,1576.3z"/>
		<path class="st5" d="M1596.5,1593.2c-2.7-3.1-2-8,1.6-11.1c3.5-3.1,8.6-3.1,11.3-0.1c2.7,3.1,2,8-1.6,11.1
			C1604.2,1596.2,1599.2,1596.2,1596.5,1593.2z"/>
		<path class="st5" d="M1577.3,1610c-2.7-3.1-2-8,1.6-11.1c3.5-3.1,8.6-3.1,11.3-0.1c2.7,3.1,2,8-1.6,11.1
			C1585,1613,1579.9,1613.1,1577.3,1610z"/>
		<path class="st5" d="M1558,1626.8c-2.7-3.1-2-8,1.6-11.1c3.5-3.1,8.6-3.1,11.3-0.1c2.7,3.1,2,8-1.6,11.1
			C1565.7,1629.9,1560.7,1629.9,1558,1626.8z"/>
		<path class="st5" d="M1538.8,1643.7c-2.7-3.1-2-8,1.6-11.1c3.5-3.1,8.6-3.1,11.3-0.1c2.7,3.1,2,8-1.6,11.1
			C1546.5,1646.7,1541.5,1646.7,1538.8,1643.7z"/>
		<path class="st5" d="M1641.2,1519.3c-2.7-3.1-2-8,1.6-11.1c3.5-3.1,8.6-3.1,11.3-0.1c2.7,3.1,2,8-1.6,11.1
			C1648.9,1522.3,1643.8,1522.3,1641.2,1519.3z"/>
		<path class="st5" d="M1621.9,1536.1c-2.7-3.1-2-8,1.6-11.1c3.5-3.1,8.6-3.1,11.3-0.1c2.7,3.1,2,8-1.6,11.1
			C1629.6,1539.1,1624.6,1539.2,1621.9,1536.1z"/>
		<path class="st5" d="M1602.7,1552.9c-2.7-3.1-2-8,1.6-11.1c3.5-3.1,8.6-3.1,11.3-0.1c2.7,3.1,2,8-1.6,11.1
			C1610.4,1556,1605.4,1556,1602.7,1552.9z"/>
		<path class="st5" d="M1583.4,1569.8c-2.7-3.1-2-8,1.6-11.1c3.5-3.1,8.6-3.1,11.3-0.1c2.7,3.1,2,8-1.6,11.1
			C1591.2,1572.8,1586.1,1572.8,1583.4,1569.8z"/>
		<path class="st5" d="M1564.2,1586.6c-2.7-3.1-2-8,1.6-11.1c3.5-3.1,8.6-3.1,11.3-0.1c2.7,3.1,2,8-1.6,11.1
			C1571.9,1589.6,1566.9,1589.7,1564.2,1586.6z"/>
		<path class="st5" d="M1545,1603.5c-2.7-3.1-2-8,1.6-11.1c3.5-3.1,8.6-3.1,11.3-0.1c2.7,3.1,2,8-1.6,11.1
			C1552.7,1606.5,1547.6,1606.5,1545,1603.5z"/>
		<path class="st5" d="M1525.7,1620.3c-2.7-3.1-2-8,1.6-11.1c3.5-3.1,8.6-3.1,11.3-0.1c2.7,3.1,2,8-1.6,11.1
			C1533.4,1623.3,1528.4,1623.3,1525.7,1620.3z"/>
		<path class="st5" d="M1589.6,1529.6c-2.7-3.1-2-8,1.6-11.1c3.5-3.1,8.6-3.1,11.3-0.1c2.7,3.1,2,8-1.6,11.1
			C1597.3,1532.6,1592.3,1532.6,1589.6,1529.6z"/>
		<path class="st5" d="M1570.4,1546.4c-2.7-3.1-2-8,1.6-11.1c3.5-3.1,8.6-3.1,11.3-0.1c2.7,3.1,2,8-1.6,11.1
			C1578.1,1549.4,1573.1,1549.4,1570.4,1546.4z"/>
		<path class="st5" d="M1551.1,1563.2c-2.7-3.1-2-8,1.6-11.1c3.5-3.1,8.6-3.1,11.3-0.1c2.7,3.1,2,8-1.6,11.1
			C1558.8,1566.2,1553.8,1566.3,1551.1,1563.2z"/>
		<path class="st5" d="M1531.9,1580.1c-2.7-3.1-2-8,1.6-11.1c3.5-3.1,8.6-3.1,11.3-0.1c2.7,3.1,2,8-1.6,11.1
			C1539.6,1583.1,1534.6,1583.1,1531.9,1580.1z"/>
		<path class="st5" d="M1512.7,1596.9c-2.7-3.1-2-8,1.6-11.1c3.5-3.1,8.6-3.1,11.3-0.1c2.7,3.1,2,8-1.6,11.1
			C1520.4,1599.9,1515.3,1600,1512.7,1596.9z"/>
		<path class="st5" d="M1538.1,1539.8c-2.7-3.1-2-8,1.6-11.1c3.5-3.1,8.6-3.1,11.3-0.1c2.7,3.1,2,8-1.6,11.1
			C1545.8,1542.9,1540.7,1542.9,1538.1,1539.8z"/>
		<path class="st5" d="M1518.8,1556.7c-2.7-3.1-2-8,1.6-11.1c3.5-3.1,8.6-3.1,11.3-0.1c2.7,3.1,2,8-1.6,11.1
			C1526.5,1559.7,1521.5,1559.7,1518.8,1556.7z"/>
		<path class="st5" d="M1499.6,1573.5c-2.7-3.1-2-8,1.6-11.1c3.5-3.1,8.6-3.1,11.3-0.1c2.7,3.1,2,8-1.6,11.1
			C1507.3,1576.5,1502.3,1576.6,1499.6,1573.5z"/>
	</g>
</g>
<g id="Layer_16">
	<g>
		<path class="st5" d="M2399.8,502.1c2.6,1.6,4.4,4.2,4.9,7.5c0.3,2.2,0.1,4.4-0.2,6.4c-0.2,1.3-0.3,2.6-0.3,3.6
			c0.2,2.8,2.6,5,5.3,4.7c2.6-0.2,5.4-2.8,6.1-5.7l7.1,0.7c-1.6,6.7-7.6,12.4-13.9,13c-6.2,0.5-11.4-4.2-12-10.7
			c-0.1-1.9,0.1-3.7,0.3-5.4c0.2-1.5,0.4-2.9,0.2-4c-0.4-2.6-3.4-4.3-6.4-3.6c-3.1,0.8-6.1,3.8-7.8,7.7l-6.6-2.4
			c2.9-6.6,8.2-11.6,13.8-13.1C2393.9,500,2397.2,500.5,2399.8,502.1z"/>
	</g>
</g>
<g id="Layer_15">
	<g>
		<path class="st5" d="M2127.6,447.4c2.6,1.6,4.4,4.3,4.8,7.6c0.3,2.3,0,4.6-0.3,6.6c-0.2,1.4-0.4,2.7-0.3,3.8
			c0.2,2.8,2.6,5.1,5.3,4.8c2.7-0.3,5.6-3,6.3-6l7.2,0.6c-1.7,7-7.9,12.9-14.2,13.6c-6.3,0.6-11.5-4.1-12-10.9
			c-0.1-1.9,0.1-3.9,0.4-5.5c0.2-1.6,0.4-3,0.3-4.1c-0.4-2.7-3.4-4.4-6.4-3.6c-3.1,0.9-6.3,4-8.1,8l-6.6-2.3c3-6.8,8.4-12,14.2-13.6
			C2121.6,445.2,2125,445.8,2127.6,447.4z"/>
	</g>
</g>
<g id="Layer_14">
	<g>
		<path class="st5" d="M2227.6,646c3.9-2.1,8.5-2.7,12.8-1.5c2.9,0.8,5.3,2.4,7.4,3.8c1.4,0.9,2.8,1.8,4.1,2.3
			c3.4,1.3,8-0.3,9.8-3.5c1.9-3.2,1-7.9-1.8-10.3l6.6-7.9c6.7,5.6,8.5,15.8,4.1,23.3c-4.4,7.5-14.2,11-22.3,7.9
			c-2.3-0.9-4.3-2.2-6.1-3.3c-1.6-1.1-3.2-2.1-4.6-2.5c-3.5-1-7.9,1.6-9.4,5.4c-1.5,4-0.5,9.3,2.7,13.4l-8.1,6.3
			c-5.4-7-7-15.9-4.2-23.3C2220.3,651.7,2223.6,648.1,2227.6,646z"/>
	</g>
</g>
<g id="Layer_13">
	<g>
		<path class="st5" d="M2390,749.3c3.7-0.1,7.4,1.2,10.2,3.9c1.9,1.8,3.1,4,4.2,6c0.7,1.3,1.4,2.6,2.2,3.5c2.1,2.4,6.1,2.9,8.7,1.1
			c2.6-1.9,3.7-6,2.4-9.1l7.8-3.8c3,7.2,0.6,16.2-5.4,20.6c-6,4.3-14.6,3.3-19.6-2.5c-1.4-1.7-2.5-3.5-3.4-5.1
			c-0.8-1.5-1.6-2.9-2.5-3.8c-2.2-2.2-6.5-1.9-9,0.7c-2.6,2.6-3.7,7.3-2.8,11.9l-8.4,1.9c-1.5-7.8,0.5-15.7,5.3-20.6
			C2382.5,750.9,2386.2,749.4,2390,749.3z"/>
	</g>
</g>
<g id="Layer_12">
	<g>
		<path class="st5" d="M2396.7,320.2c4.1-1.6,8.8-1.7,12.9,0c2.8,1.2,5,3,6.9,4.6c1.3,1.1,2.6,2.2,3.8,2.8c3.3,1.7,7.9,0.7,10.2-2.3
			c2.2-3,2-7.7-0.6-10.4l7.4-7.1c6,6.3,6.6,16.7,1.3,23.6c-5.2,6.9-15.4,9.2-23.1,5.2c-2.2-1.2-4.1-2.7-5.7-4
			c-1.5-1.3-2.9-2.4-4.3-3c-3.3-1.4-8,0.6-9.9,4.3c-2,3.8-1.5,9.1,1.1,13.6l-8.8,5.3c-4.6-7.6-5.1-16.6-1.4-23.6
			C2388.8,324.9,2392.5,321.8,2396.7,320.2z"/>
	</g>
</g>
<g id="Layer_11">
	<g>
		<path class="st5" d="M2379,682.6c5.9,4.9,6,14.5,0.2,21.4c-5.8,6.9-15.2,8.5-21.1,3.6c-5.9-4.9-6-14.5-0.2-21.4
			C2363.7,679.4,2373.1,677.7,2379,682.6z M2362,703c3.7,3.1,9.6,2,13.2-2.3c3.6-4.3,3.5-10.3-0.1-13.4c-3.7-3.1-9.6-2-13.2,2.3
			C2358.3,693.9,2358.3,699.9,2362,703z"/>
	</g>
</g>
<g id="Layer_10">
	<g>
		<path class="st5" d="M2197.2,359.1c12.3-0.4,22.6,9.3,23,21.6c0.4,12.3-9.3,22.6-21.6,23c-12.3,0.4-22.6-9.3-23-21.6
			C2175.2,369.8,2184.9,359.5,2197.2,359.1z M2198.4,395.3c7.7-0.3,13.8-6.7,13.5-14.4c-0.3-7.7-6.7-13.7-14.4-13.5
			c-7.7,0.3-13.7,6.7-13.5,14.4C2184.2,389.5,2190.7,395.6,2198.4,395.3z"/>
	</g>
</g>
<g id="Layer_9">
	<g>
		<path class="st5" d="M2185.4,580.2c-7,6.8-21.8,3.1-32.9-8.3c-11.1-11.4-14.5-26.3-7.4-33.1c7-6.8,21.8-3.1,32.9,8.3
			C2189,558.5,2192.4,573.3,2185.4,580.2z M2152.6,546.5c-4.4,4.3-2.3,13.6,4.7,20.7c7,7.1,16.2,9.5,20.6,5.2
			c4.4-4.3,2.3-13.6-4.7-20.7C2166.2,544.6,2157,542.3,2152.6,546.5z"/>
	</g>
</g>
<g id="Layer_8">
	<g>
		<path class="st5" d="M2474.4,632.3l33.8-1.1l1.1,33.8l-33.8,1.1L2474.4,632.3z M2503.9,635.8l-24.9,0.8l0.8,24.9l24.9-0.8
			L2503.9,635.8z"/>
	</g>
</g>
<g id="Layer_7">
	<g>
		<path class="st5" d="M2159.6,787.3l29.3-1l1,29.3l-29.3,1L2159.6,787.3z M2185.2,790.3l-21.6,0.7l0.7,21.6l21.6-0.7L2185.2,790.3z
			"/>
	</g>
</g>
<g id="Layer_6">
	<g>
		<path class="st5" d="M2319.5,522.5l17,29.2l-29.2,17l-17-29.2L2319.5,522.5z M2330.4,550.1l-12.5-21.5l-21.5,12.5l12.5,21.5
			L2330.4,550.1z"/>
	</g>
</g>
<g id="Layer_5" class="st0">
	<g class="st6">
		<g>
			<g>
				<g>
					<path class="st7" d="M1279.4,1004.9c8-37.5,41.3-65.7,81.2-65.7c39.9,0,73.2,28.2,81.2,65.7h70c-8.6-75.9-73-134.9-151.2-134.9
						c-78.2,0-142.6,59-151.2,134.9H1279.4z"/>
				</g>
				<g>
					<path class="st7" d="M1441.7,1040.3c-8.3,37.2-41.4,65-81,65c-39.7,0-72.8-27.9-81-65h-70.1c8.9,75.6,73.1,134.2,151.1,134.2
						c78,0,142.2-58.6,151.1-134.2H1441.7z"/>
				</g>
			</g>
		</g>
	</g>
</g>
<g id="Layer_4" class="st0">
	<g class="st6">
		<g>
			<g>
				<g>
					<path class="st8" d="M1511.7,1004.9c8-37.5,41.3-65.7,81.2-65.7c39.9,0,73.2,28.2,81.2,65.7h70c-8.6-75.9-73-134.9-151.2-134.9
						c-78.2,0-142.6,59-151.2,134.9H1511.7z"/>
				</g>
				<g>
					<path class="st8" d="M1673.9,1040.2c-8.2,37.2-41.4,65.1-81,65.1c-39.7,0-72.8-27.9-81-65.1h-70.1
						c8.9,75.6,73.1,134.2,151.1,134.2c78,0,142.2-58.6,151.1-134.2H1673.9z"/>
				</g>
			</g>
		</g>
	</g>
</g>
<g id="Layer_3" class="st0">
	<g class="st6">
		<g>
			<g>
				<g>
					<path class="st9" d="M1744.1,1004.9c8-37.5,41.3-65.7,81.2-65.7c39.9,0,73.2,28.2,81.2,65.7h70c-8.6-75.9-73-134.9-151.2-134.9
						c-78.2,0-142.6,59-151.2,134.9H1744.1z"/>
				</g>
				<g>
					<path class="st9" d="M1906.3,1040.2c-8.2,37.2-41.3,65.1-81,65.1c-39.7,0-72.8-27.9-81-65.1h-70.1
						c8.9,75.6,73.1,134.2,151.1,134.2c78,0,142.2-58.6,151.1-134.2H1906.3z"/>
				</g>
			</g>
		</g>
	</g>
</g>
<g id="Layer_2">
	<g>
		<circle class="st5" cx="4512.6" cy="1075" r="8.6"/>
		<circle class="st5" cx="4514.8" cy="1303.3" r="8.6"/>
		<circle class="st5" cx="4525.3" cy="1331" r="8.6"/>
		<circle class="st5" cx="4548.8" cy="1273.7" r="8.6"/>
		<circle class="st5" cx="4561.3" cy="1191.7" r="8.6"/>
		<circle class="st5" cx="4506.2" cy="1353" r="8.6"/>
		<circle class="st5" cx="4546" cy="1302.1" r="8.6"/>
		<circle class="st5" cx="4558.1" cy="1249.4" r="8.6"/>
		<circle class="st5" cx="4518.1" cy="1272.2" r="8.6"/>
		<circle class="st5" cx="4556.4" cy="1161.7" r="8.6"/>
		<circle class="st5" cx="4564" cy="1220.8" r="8.6"/>
		<circle class="st5" cx="4514.8" cy="1132.1" r="8.6"/>
		<circle class="st5" cx="4527" cy="1105.1" r="8.6"/>
		<circle class="st5" cx="4487.2" cy="1059.5" r="8.6"/>
		<circle class="st5" cx="4525.9" cy="1163.7" r="8.6"/>
		<circle class="st5" cx="4530.4" cy="1193.4" r="8.6"/>
		<circle class="st5" cx="4533.6" cy="1225.6" r="8.6"/>
		<circle class="st5" cx="4546.1" cy="1131.9" r="8.6"/>
		<circle class="st5" cx="4278" cy="1398.4" r="8.6"/>
		<circle class="st5" cx="4253.7" cy="1048.5" r="8.6"/>
		<circle class="st5" cx="4200.5" cy="1331.3" r="8.6"/>
		<circle class="st5" cx="4425.7" cy="1402.2" r="8.6"/>
		<circle class="st5" cx="4460.9" cy="1351.2" r="8.6"/>
		<circle class="st5" cx="4332" cy="1018.7" r="8.6"/>
		<circle class="st5" cx="4278.2" cy="1035.4" r="8.6"/>
		<circle class="st5" cx="4163.5" cy="1158.7" r="8.6"/>
		<circle class="st5" cx="4205.5" cy="1197.2" r="8.6"/>
		<circle class="st5" cx="4264.7" cy="1374.9" r="8.6"/>
		<circle class="st5" cx="4361.8" cy="1016.2" r="8.6"/>
		<circle class="st5" cx="4366.1" cy="1413.4" r="8.6"/>
		<circle class="st5" cx="4307.4" cy="1407" r="8.6"/>
		<circle class="st5" cx="4453.7" cy="1389.5" r="8.6"/>
		<circle class="st5" cx="4393.1" cy="1018.6" r="8.6"/>
		<circle class="st5" cx="4260.3" cy="1087.4" r="8.6"/>
		<circle class="st5" cx="4280.8" cy="1069.9" r="8.6"/>
		<circle class="st5" cx="4288.1" cy="1356.5" r="8.6"/>
		<circle class="st5" cx="4476.2" cy="1223.1" r="8.6"/>
		<circle class="st5" cx="4216" cy="1355.3" r="8.6"/>
		<circle class="st5" cx="4308.9" cy="1377.3" r="8.6"/>
		<circle class="st5" cx="4369.5" cy="1237.1" r="8.6"/>
		<circle class="st5" cx="4404.1" cy="1378.8" r="8.6"/>
		<circle class="st5" cx="4362.3" cy="1076.8" r="8.6"/>
		<circle class="st5" cx="4304.7" cy="1026.9" r="8.6"/>
		<circle class="st5" cx="4457.2" cy="1067.6" r="8.6"/>
		<circle class="st5" cx="4431.9" cy="1367.4" r="8.6"/>
		<circle class="st5" cx="4331.3" cy="1086.3" r="8.6"/>
		<circle class="st5" cx="4267.2" cy="1336.4" r="8.6"/>
		<circle class="st5" cx="4483.3" cy="1330" r="8.6"/>
		<circle class="st5" cx="4493.8" cy="1161.5" r="8.6"/>
		<circle class="st5" cx="4304.6" cy="1097.5" r="8.6"/>
		<circle class="st5" cx="4262.5" cy="1183.7" r="8.6"/>
		<circle class="st5" cx="4218.5" cy="1135.6" r="8.6"/>
		<circle class="st5" cx="4420" cy="1054" r="8.6"/>
		<circle class="st5" cx="4173.5" cy="1295.5" r="8.6"/>
		<circle class="st5" cx="4306.5" cy="1062.8" r="8.6"/>
		<circle class="st5" cx="4395.7" cy="1409.6" r="8.6"/>
		<circle class="st5" cx="4453.5" cy="1039.1" r="8.6"/>
		<circle class="st5" cx="4339.8" cy="1251.6" r="8.6"/>
		<circle class="st5" cx="4232.9" cy="1067" r="8.6"/>
		<circle class="st5" cx="4509.3" cy="1241.7" r="8.6"/>
		<circle class="st5" cx="4355.2" cy="1151.2" r="8.6"/>
		<circle class="st5" cx="4478.8" cy="1372.5" r="8.6"/>
		<circle class="st5" cx="4452.6" cy="1245.7" r="8.6"/>
		<circle class="st5" cx="4423.9" cy="1025.5" r="8.6"/>
		<circle class="st5" cx="4339.7" cy="1382" r="8.6"/>
		<circle class="st5" cx="4388.7" cy="1047.8" r="8.6"/>
		<circle class="st5" cx="4238.6" cy="1373.4" r="8.6"/>
		<circle class="st5" cx="4429.4" cy="1081.4" r="8.6"/>
		<circle class="st5" cx="4384.4" cy="1353" r="8.6"/>
		<circle class="st5" cx="4482.5" cy="1124.6" r="8.6"/>
		<circle class="st5" cx="4239.8" cy="1335" r="8.6"/>
		<circle class="st5" cx="4400.7" cy="1291.9" r="8.6"/>
		<circle class="st5" cx="4321.8" cy="1284.9" r="8.6"/>
		<circle class="st5" cx="4487.1" cy="1096.2" r="8.6"/>
		<circle class="st5" cx="4408.2" cy="1137.2" r="8.6"/>
		<circle class="st5" cx="4414.3" cy="1170.9" r="8.6"/>
		<circle class="st5" cx="4421.1" cy="1309.9" r="8.6"/>
		<circle class="st5" cx="4466.5" cy="1149.8" r="8.6"/>
		<circle class="st5" cx="4351.3" cy="1298.1" r="8.6"/>
		<circle class="st5" cx="4466.6" cy="1275.3" r="8.6"/>
		<circle class="st5" cx="4337" cy="1411.7" r="8.6"/>
		<circle class="st5" cx="4420.6" cy="1258.9" r="8.6"/>
		<circle class="st5" cx="4436.8" cy="1152.7" r="8.6"/>
		<circle class="st5" cx="4482.7" cy="1254.7" r="8.6"/>
		<circle class="st5" cx="4180.7" cy="1134.8" r="8.6"/>
		<circle class="st5" cx="4332.1" cy="1051.3" r="8.6"/>
		<circle class="st5" cx="4455.8" cy="1308.4" r="8.6"/>
		<circle class="st5" cx="4329.6" cy="1124.9" r="8.6"/>
		<circle class="st5" cx="4371.9" cy="1383.4" r="8.6"/>
		<circle class="st5" cx="4354.9" cy="1109.2" r="8.6"/>
		<circle class="st5" cx="4384.5" cy="1168.1" r="8.6"/>
		<circle class="st5" cx="4415.4" cy="1106.7" r="8.6"/>
		<circle class="st5" cx="4322.2" cy="1347.4" r="8.6"/>
		<circle class="st5" cx="4395.5" cy="1077.2" r="8.6"/>
		<circle class="st5" cx="4443" cy="1123.6" r="8.6"/>
		<circle class="st5" cx="4358.9" cy="1046.6" r="8.6"/>
		<circle class="st5" cx="4448.2" cy="1210.2" r="8.6"/>
		<circle class="st5" cx="4406.9" cy="1338.5" r="8.6"/>
		<circle class="st5" cx="4354.7" cy="1355.5" r="8.6"/>
		<circle class="st5" cx="4377.9" cy="1135.8" r="8.6"/>
		<circle class="st5" cx="4295.2" cy="1324.6" r="8.6"/>
		<circle class="st5" cx="4485.8" cy="1298" r="8.6"/>
		<circle class="st5" cx="4390.9" cy="1264.4" r="8.6"/>
		<circle class="st5" cx="4479.1" cy="1184.9" r="8.6"/>
		<circle class="st5" cx="4307.1" cy="1147.8" r="8.6"/>
		<circle class="st5" cx="4380" cy="1314.4" r="8.6"/>
		<circle class="st5" cx="4198.5" cy="1113.8" r="8.6"/>
		<circle class="st5" cx="4438.9" cy="1281.7" r="8.6"/>
		<circle class="st5" cx="4352.2" cy="1185.2" r="8.6"/>
		<circle class="st5" cx="4425" cy="1230.1" r="8.6"/>
		<circle class="st5" cx="4415.5" cy="1199.3" r="8.6"/>
		<circle class="st5" cx="4457.3" cy="1099.7" r="8.6"/>
		<circle class="st5" cx="4437.1" cy="1334.6" r="8.6"/>
		<circle class="st5" cx="4449" cy="1179" r="8.6"/>
		<circle class="st5" cx="4503.8" cy="1205.4" r="8.6"/>
		<circle class="st5" cx="4385.1" cy="1106.3" r="8.6"/>
		<circle class="st5" cx="4395.1" cy="1227.9" r="8.6"/>
		<circle class="st5" cx="4364.2" cy="1273.4" r="8.6"/>
		<circle class="st5" cx="4380.3" cy="1199.4" r="8.6"/>
		<circle class="st5" cx="4155" cy="1231.9" r="8.6"/>
		<circle class="st5" cx="4161.1" cy="1264.4" r="8.6"/>
		<circle class="st5" cx="4197.8" cy="1085.1" r="8.6"/>
		<circle class="st5" cx="4156.5" cy="1197.8" r="8.6"/>
		<circle class="st5" cx="4181.3" cy="1176.7" r="8.6"/>
		<circle class="st5" cx="4191.3" cy="1303.6" r="8.6"/>
		<circle class="st5" cx="4180.9" cy="1218.1" r="8.6"/>
		<circle class="st5" cx="4241.4" cy="1125.7" r="8.6"/>
		<circle class="st5" cx="4207.5" cy="1278" r="8.6"/>
		<circle class="st5" cx="4320.6" cy="1314.1" r="8.6"/>
		<circle class="st5" cx="4187.2" cy="1254.7" r="8.6"/>
		<circle class="st5" cx="4263.9" cy="1113.9" r="8.6"/>
		<circle class="st5" cx="4203.4" cy="1162.9" r="8.6"/>
		<circle class="st5" cx="4208.4" cy="1232" r="8.6"/>
		<circle class="st5" cx="4225.8" cy="1305.8" r="8.6"/>
		<circle class="st5" cx="4234.6" cy="1167" r="8.6"/>
		<circle class="st5" cx="4223.6" cy="1255.9" r="8.6"/>
		<circle class="st5" cx="4224.2" cy="1096.1" r="8.6"/>
		<circle class="st5" cx="4253.3" cy="1301.9" r="8.6"/>
		<circle class="st5" cx="4249.7" cy="1268.2" r="8.6"/>
		<circle class="st5" cx="4352.7" cy="1326.9" r="8.6"/>
		<circle class="st5" cx="4263" cy="1150.5" r="8.6"/>
		<circle class="st5" cx="4291.5" cy="1124.3" r="8.6"/>
		<circle class="st5" cx="4230.8" cy="1200.1" r="8.6"/>
		<circle class="st5" cx="4283.2" cy="1297.8" r="8.6"/>
		<circle class="st5" cx="4326.2" cy="1159.4" r="8.6"/>
		<circle class="st5" cx="4239.7" cy="1226" r="8.6"/>
		<circle class="st5" cx="4296.3" cy="1230.7" r="8.6"/>
		<circle class="st5" cx="4266" cy="1238.9" r="8.6"/>
		<circle class="st5" cx="4304.3" cy="1257.8" r="8.6"/>
		<circle class="st5" cx="4278.8" cy="1206.9" r="8.6"/>
		<circle class="st5" cx="4278.3" cy="1268.6" r="8.6"/>
		<circle class="st5" cx="4290.3" cy="1173.3" r="8.6"/>
		<circle class="st5" cx="4313.1" cy="1195.2" r="8.6"/>
		<circle class="st5" cx="4322.4" cy="1228" r="8.6"/>
		<circle class="st5" cx="4343" cy="1212.8" r="8.6"/>
	</g>
</g>
</svg>
